<mxfile host="app.diagrams.net" modified="2022-03-09T19:51:07.067Z" agent="5.0 (Windows)" etag="HOEypsL93jJihvH5Uzzr" version="16.6.6" type="github">
  <diagram id="C5RBs43oDa-KdzZeNtuy" name="Page-1">
    <mxGraphModel dx="1237" dy="678" grid="1" gridSize="10" guides="1" tooltips="1" connect="1" arrows="1" fold="1" page="1" pageScale="1" pageWidth="583" pageHeight="827" math="0" shadow="0">
      <root>
        <mxCell id="WIyWlLk6GJQsqaUBKTNV-0" />
        <mxCell id="WIyWlLk6GJQsqaUBKTNV-1" parent="WIyWlLk6GJQsqaUBKTNV-0" />
        <mxCell id="4bi4kWeXioRVAayadUFc-0" value="Stream start" style="rounded=0;whiteSpace=wrap;html=1;" vertex="1" parent="WIyWlLk6GJQsqaUBKTNV-1">
          <mxGeometry x="151" y="261" width="280" height="30" as="geometry" />
        </mxCell>
        <mxCell id="4bi4kWeXioRVAayadUFc-3" value="GfxBinaryHeader" style="shape=table;startSize=30;container=1;collapsible=0;childLayout=tableLayout;fixedRows=1;rowLines=0;fontStyle=0;strokeColor=default;" vertex="1" parent="WIyWlLk6GJQsqaUBKTNV-1">
          <mxGeometry x="151" y="301" width="280" height="90" as="geometry" />
        </mxCell>
        <mxCell id="4bi4kWeXioRVAayadUFc-4" value="" style="shape=tableRow;horizontal=0;startSize=0;swimlaneHead=0;swimlaneBody=0;top=0;left=0;bottom=0;right=0;collapsible=0;dropTarget=0;fillColor=none;points=[[0,0.5],[1,0.5]];portConstraint=eastwest;" vertex="1" parent="4bi4kWeXioRVAayadUFc-3">
          <mxGeometry y="30" width="280" height="20" as="geometry" />
        </mxCell>
        <mxCell id="4bi4kWeXioRVAayadUFc-5" value="0x0" style="shape=partialRectangle;html=1;whiteSpace=wrap;connectable=0;fillColor=none;top=0;left=0;bottom=0;right=0;overflow=hidden;pointerEvents=1;align=center;" vertex="1" parent="4bi4kWeXioRVAayadUFc-4">
          <mxGeometry width="32" height="20" as="geometry">
            <mxRectangle width="32" height="20" as="alternateBounds" />
          </mxGeometry>
        </mxCell>
        <mxCell id="4bi4kWeXioRVAayadUFc-6" value="Signature" style="shape=partialRectangle;html=1;whiteSpace=wrap;connectable=0;fillColor=none;top=0;left=0;bottom=0;right=0;align=left;spacingLeft=6;overflow=hidden;" vertex="1" parent="4bi4kWeXioRVAayadUFc-4">
          <mxGeometry x="32" width="122" height="20" as="geometry">
            <mxRectangle width="122" height="20" as="alternateBounds" />
          </mxGeometry>
        </mxCell>
        <mxCell id="4bi4kWeXioRVAayadUFc-13" value="&lt;div&gt;String&lt;/div&gt;" style="shape=partialRectangle;html=1;whiteSpace=wrap;connectable=0;fillColor=none;top=0;left=0;bottom=0;right=0;align=left;spacingLeft=6;overflow=hidden;" vertex="1" parent="4bi4kWeXioRVAayadUFc-4">
          <mxGeometry x="154" width="97" height="20" as="geometry">
            <mxRectangle width="97" height="20" as="alternateBounds" />
          </mxGeometry>
        </mxCell>
        <mxCell id="4bi4kWeXioRVAayadUFc-24" value="8" style="shape=partialRectangle;html=1;whiteSpace=wrap;connectable=0;fillColor=none;top=0;left=0;bottom=0;right=0;align=left;spacingLeft=6;overflow=hidden;" vertex="1" parent="4bi4kWeXioRVAayadUFc-4">
          <mxGeometry x="251" width="29" height="20" as="geometry">
            <mxRectangle width="29" height="20" as="alternateBounds" />
          </mxGeometry>
        </mxCell>
        <mxCell id="4bi4kWeXioRVAayadUFc-7" value="" style="shape=tableRow;horizontal=0;startSize=0;swimlaneHead=0;swimlaneBody=0;top=0;left=0;bottom=0;right=0;collapsible=0;dropTarget=0;fillColor=none;points=[[0,0.5],[1,0.5]];portConstraint=eastwest;" vertex="1" parent="4bi4kWeXioRVAayadUFc-3">
          <mxGeometry y="50" width="280" height="20" as="geometry" />
        </mxCell>
        <mxCell id="4bi4kWeXioRVAayadUFc-8" value="&lt;div&gt;0x8&lt;/div&gt;" style="shape=partialRectangle;html=1;whiteSpace=wrap;connectable=0;fillColor=none;top=0;left=0;bottom=0;right=0;overflow=hidden;align=center;" vertex="1" parent="4bi4kWeXioRVAayadUFc-7">
          <mxGeometry width="32" height="20" as="geometry">
            <mxRectangle width="32" height="20" as="alternateBounds" />
          </mxGeometry>
        </mxCell>
        <mxCell id="4bi4kWeXioRVAayadUFc-9" value="&lt;div&gt;BigEndian&lt;/div&gt;" style="shape=partialRectangle;html=1;whiteSpace=wrap;connectable=0;fillColor=none;top=0;left=0;bottom=0;right=0;align=left;spacingLeft=6;overflow=hidden;" vertex="1" parent="4bi4kWeXioRVAayadUFc-7">
          <mxGeometry x="32" width="122" height="20" as="geometry">
            <mxRectangle width="122" height="20" as="alternateBounds" />
          </mxGeometry>
        </mxCell>
        <mxCell id="4bi4kWeXioRVAayadUFc-14" value="boolean" style="shape=partialRectangle;html=1;whiteSpace=wrap;connectable=0;fillColor=none;top=0;left=0;bottom=0;right=0;align=left;spacingLeft=6;overflow=hidden;" vertex="1" parent="4bi4kWeXioRVAayadUFc-7">
          <mxGeometry x="154" width="97" height="20" as="geometry">
            <mxRectangle width="97" height="20" as="alternateBounds" />
          </mxGeometry>
        </mxCell>
        <mxCell id="4bi4kWeXioRVAayadUFc-25" value="1" style="shape=partialRectangle;html=1;whiteSpace=wrap;connectable=0;fillColor=none;top=0;left=0;bottom=0;right=0;align=left;spacingLeft=6;overflow=hidden;" vertex="1" parent="4bi4kWeXioRVAayadUFc-7">
          <mxGeometry x="251" width="29" height="20" as="geometry">
            <mxRectangle width="29" height="20" as="alternateBounds" />
          </mxGeometry>
        </mxCell>
        <mxCell id="4bi4kWeXioRVAayadUFc-10" value="" style="shape=tableRow;horizontal=0;startSize=0;swimlaneHead=0;swimlaneBody=0;top=0;left=0;bottom=0;right=0;collapsible=0;dropTarget=0;fillColor=none;points=[[0,0.5],[1,0.5]];portConstraint=eastwest;" vertex="1" parent="4bi4kWeXioRVAayadUFc-3">
          <mxGeometry y="70" width="280" height="20" as="geometry" />
        </mxCell>
        <mxCell id="4bi4kWeXioRVAayadUFc-11" value="0x9" style="shape=partialRectangle;html=1;whiteSpace=wrap;connectable=0;fillColor=none;top=0;left=0;bottom=0;right=0;overflow=hidden;" vertex="1" parent="4bi4kWeXioRVAayadUFc-10">
          <mxGeometry width="32" height="20" as="geometry">
            <mxRectangle width="32" height="20" as="alternateBounds" />
          </mxGeometry>
        </mxCell>
        <mxCell id="4bi4kWeXioRVAayadUFc-12" value="Revision" style="shape=partialRectangle;html=1;whiteSpace=wrap;connectable=0;fillColor=none;top=0;left=0;bottom=0;right=0;align=left;spacingLeft=6;overflow=hidden;" vertex="1" parent="4bi4kWeXioRVAayadUFc-10">
          <mxGeometry x="32" width="122" height="20" as="geometry">
            <mxRectangle width="122" height="20" as="alternateBounds" />
          </mxGeometry>
        </mxCell>
        <mxCell id="4bi4kWeXioRVAayadUFc-15" value="int" style="shape=partialRectangle;html=1;whiteSpace=wrap;connectable=0;fillColor=none;top=0;left=0;bottom=0;right=0;align=left;spacingLeft=6;overflow=hidden;" vertex="1" parent="4bi4kWeXioRVAayadUFc-10">
          <mxGeometry x="154" width="97" height="20" as="geometry">
            <mxRectangle width="97" height="20" as="alternateBounds" />
          </mxGeometry>
        </mxCell>
        <mxCell id="4bi4kWeXioRVAayadUFc-26" value="4" style="shape=partialRectangle;html=1;whiteSpace=wrap;connectable=0;fillColor=none;top=0;left=0;bottom=0;right=0;align=left;spacingLeft=6;overflow=hidden;" vertex="1" parent="4bi4kWeXioRVAayadUFc-10">
          <mxGeometry x="251" width="29" height="20" as="geometry">
            <mxRectangle width="29" height="20" as="alternateBounds" />
          </mxGeometry>
        </mxCell>
        <mxCell id="4bi4kWeXioRVAayadUFc-28" value="GfxBlockHeader" style="shape=table;startSize=30;container=1;collapsible=0;childLayout=tableLayout;fixedRows=1;rowLines=0;fontStyle=0;strokeColor=default;" vertex="1" parent="WIyWlLk6GJQsqaUBKTNV-1">
          <mxGeometry x="151" y="401" width="280" height="50" as="geometry" />
        </mxCell>
        <mxCell id="4bi4kWeXioRVAayadUFc-29" value="" style="shape=tableRow;horizontal=0;startSize=0;swimlaneHead=0;swimlaneBody=0;top=0;left=0;bottom=0;right=0;collapsible=0;dropTarget=0;fillColor=none;points=[[0,0.5],[1,0.5]];portConstraint=eastwest;" vertex="1" parent="4bi4kWeXioRVAayadUFc-28">
          <mxGeometry y="30" width="280" height="20" as="geometry" />
        </mxCell>
        <mxCell id="4bi4kWeXioRVAayadUFc-30" value="0x0" style="shape=partialRectangle;html=1;whiteSpace=wrap;connectable=0;fillColor=none;top=0;left=0;bottom=0;right=0;overflow=hidden;pointerEvents=1;align=center;" vertex="1" parent="4bi4kWeXioRVAayadUFc-29">
          <mxGeometry width="32" height="20" as="geometry">
            <mxRectangle width="32" height="20" as="alternateBounds" />
          </mxGeometry>
        </mxCell>
        <mxCell id="4bi4kWeXioRVAayadUFc-31" value="Tag" style="shape=partialRectangle;html=1;whiteSpace=wrap;connectable=0;fillColor=none;top=0;left=0;bottom=0;right=0;align=left;spacingLeft=6;overflow=hidden;" vertex="1" parent="4bi4kWeXioRVAayadUFc-29">
          <mxGeometry x="32" width="122" height="20" as="geometry">
            <mxRectangle width="122" height="20" as="alternateBounds" />
          </mxGeometry>
        </mxCell>
        <mxCell id="4bi4kWeXioRVAayadUFc-32" value="&lt;div&gt;String&lt;/div&gt;" style="shape=partialRectangle;html=1;whiteSpace=wrap;connectable=0;fillColor=none;top=0;left=0;bottom=0;right=0;align=left;spacingLeft=6;overflow=hidden;" vertex="1" parent="4bi4kWeXioRVAayadUFc-29">
          <mxGeometry x="154" width="97" height="20" as="geometry">
            <mxRectangle width="97" height="20" as="alternateBounds" />
          </mxGeometry>
        </mxCell>
        <mxCell id="4bi4kWeXioRVAayadUFc-33" value="&lt;div&gt;4&lt;/div&gt;" style="shape=partialRectangle;html=1;whiteSpace=wrap;connectable=0;fillColor=none;top=0;left=0;bottom=0;right=0;align=left;spacingLeft=6;overflow=hidden;" vertex="1" parent="4bi4kWeXioRVAayadUFc-29">
          <mxGeometry x="251" width="29" height="20" as="geometry">
            <mxRectangle width="29" height="20" as="alternateBounds" />
          </mxGeometry>
        </mxCell>
        <mxCell id="4bi4kWeXioRVAayadUFc-48" style="edgeStyle=orthogonalEdgeStyle;rounded=0;orthogonalLoop=1;jettySize=auto;html=1;exitX=0;exitY=0.5;exitDx=0;exitDy=0;entryX=0.5;entryY=0;entryDx=0;entryDy=0;" edge="1" parent="WIyWlLk6GJQsqaUBKTNV-1" source="4bi4kWeXioRVAayadUFc-44">
          <mxGeometry relative="1" as="geometry">
            <mxPoint x="191" y="561" as="targetPoint" />
          </mxGeometry>
        </mxCell>
        <mxCell id="4bi4kWeXioRVAayadUFc-49" value="Literal &quot;TERM&quot;" style="edgeLabel;html=1;align=center;verticalAlign=middle;resizable=0;points=[];" vertex="1" connectable="0" parent="4bi4kWeXioRVAayadUFc-48">
          <mxGeometry x="0.2067" relative="1" as="geometry">
            <mxPoint as="offset" />
          </mxGeometry>
        </mxCell>
        <mxCell id="4bi4kWeXioRVAayadUFc-51" style="edgeStyle=orthogonalEdgeStyle;rounded=0;orthogonalLoop=1;jettySize=auto;html=1;exitX=1;exitY=0.5;exitDx=0;exitDy=0;entryX=0.5;entryY=0;entryDx=0;entryDy=0;" edge="1" parent="WIyWlLk6GJQsqaUBKTNV-1" source="4bi4kWeXioRVAayadUFc-44" target="4bi4kWeXioRVAayadUFc-50">
          <mxGeometry relative="1" as="geometry" />
        </mxCell>
        <mxCell id="4bi4kWeXioRVAayadUFc-52" value="Another value" style="edgeLabel;html=1;align=center;verticalAlign=middle;resizable=0;points=[];" vertex="1" connectable="0" parent="4bi4kWeXioRVAayadUFc-51">
          <mxGeometry x="0.1649" y="-2" relative="1" as="geometry">
            <mxPoint as="offset" />
          </mxGeometry>
        </mxCell>
        <mxCell id="4bi4kWeXioRVAayadUFc-54" style="edgeStyle=orthogonalEdgeStyle;rounded=0;orthogonalLoop=1;jettySize=auto;html=1;exitX=0.5;exitY=1;exitDx=0;exitDy=0;entryX=0.5;entryY=0;entryDx=0;entryDy=0;" edge="1" parent="WIyWlLk6GJQsqaUBKTNV-1" source="4bi4kWeXioRVAayadUFc-44" target="4bi4kWeXioRVAayadUFc-53">
          <mxGeometry relative="1" as="geometry" />
        </mxCell>
        <mxCell id="4bi4kWeXioRVAayadUFc-55" value="Serializer-recognized tag" style="edgeLabel;html=1;align=center;verticalAlign=middle;resizable=0;points=[];" vertex="1" connectable="0" parent="4bi4kWeXioRVAayadUFc-54">
          <mxGeometry x="-0.1407" y="1" relative="1" as="geometry">
            <mxPoint x="-1" y="-19" as="offset" />
          </mxGeometry>
        </mxCell>
        <mxCell id="4bi4kWeXioRVAayadUFc-44" value="Process &quot;Tag&quot; value" style="rounded=0;whiteSpace=wrap;html=1;strokeColor=default;" vertex="1" parent="WIyWlLk6GJQsqaUBKTNV-1">
          <mxGeometry x="231" y="491" width="120" height="30" as="geometry" />
        </mxCell>
        <mxCell id="4bi4kWeXioRVAayadUFc-46" style="edgeStyle=orthogonalEdgeStyle;rounded=0;orthogonalLoop=1;jettySize=auto;html=1;exitX=1;exitY=0.5;exitDx=0;exitDy=0;entryX=0.5;entryY=0;entryDx=0;entryDy=0;" edge="1" parent="WIyWlLk6GJQsqaUBKTNV-1" source="4bi4kWeXioRVAayadUFc-29" target="4bi4kWeXioRVAayadUFc-44">
          <mxGeometry relative="1" as="geometry" />
        </mxCell>
        <mxCell id="4bi4kWeXioRVAayadUFc-47" value="&lt;div&gt;Stream end&lt;/div&gt;" style="rounded=0;whiteSpace=wrap;html=1;strokeColor=default;" vertex="1" parent="WIyWlLk6GJQsqaUBKTNV-1">
          <mxGeometry x="131" y="551" width="120" height="30" as="geometry" />
        </mxCell>
        <mxCell id="4bi4kWeXioRVAayadUFc-50" value="I/O Error" style="rounded=0;whiteSpace=wrap;html=1;strokeColor=default;" vertex="1" parent="WIyWlLk6GJQsqaUBKTNV-1">
          <mxGeometry x="331" y="561" width="120" height="30" as="geometry" />
        </mxCell>
        <mxCell id="4bi4kWeXioRVAayadUFc-53" value="Call serializer.deserialize" style="rounded=0;whiteSpace=wrap;html=1;strokeColor=default;" vertex="1" parent="WIyWlLk6GJQsqaUBKTNV-1">
          <mxGeometry x="206" y="611" width="170" height="30" as="geometry" />
        </mxCell>
        <mxCell id="4bi4kWeXioRVAayadUFc-56" value="Stream container format" style="text;strokeColor=none;fillColor=none;html=1;fontSize=24;fontStyle=1;verticalAlign=middle;align=center;" vertex="1" parent="WIyWlLk6GJQsqaUBKTNV-1">
          <mxGeometry x="241" y="186" width="100" height="40" as="geometry" />
        </mxCell>
        <mxCell id="4bi4kWeXioRVAayadUFc-57" value="GfxTexture [IMAG]" style="text;strokeColor=none;fillColor=none;html=1;fontSize=24;fontStyle=1;verticalAlign=middle;align=center;" vertex="1" parent="WIyWlLk6GJQsqaUBKTNV-1">
          <mxGeometry x="177" y="840" width="230" height="40" as="geometry" />
        </mxCell>
        <mxCell id="4bi4kWeXioRVAayadUFc-65" style="edgeStyle=orthogonalEdgeStyle;rounded=0;orthogonalLoop=1;jettySize=auto;html=1;entryX=0.5;entryY=0;entryDx=0;entryDy=0;" edge="1" parent="WIyWlLk6GJQsqaUBKTNV-1" source="4bi4kWeXioRVAayadUFc-58" target="4bi4kWeXioRVAayadUFc-64">
          <mxGeometry relative="1" as="geometry" />
        </mxCell>
        <mxCell id="4bi4kWeXioRVAayadUFc-58" value="GfxTexture" style="shape=table;startSize=30;container=1;collapsible=0;childLayout=tableLayout;fixedRows=1;rowLines=0;fontStyle=0;strokeColor=default;" vertex="1" parent="WIyWlLk6GJQsqaUBKTNV-1">
          <mxGeometry x="152" y="880" width="280" height="50" as="geometry" />
        </mxCell>
        <mxCell id="4bi4kWeXioRVAayadUFc-59" value="" style="shape=tableRow;horizontal=0;startSize=0;swimlaneHead=0;swimlaneBody=0;top=0;left=0;bottom=0;right=0;collapsible=0;dropTarget=0;fillColor=none;points=[[0,0.5],[1,0.5]];portConstraint=eastwest;" vertex="1" parent="4bi4kWeXioRVAayadUFc-58">
          <mxGeometry y="30" width="280" height="20" as="geometry" />
        </mxCell>
        <mxCell id="4bi4kWeXioRVAayadUFc-60" value="0x0" style="shape=partialRectangle;html=1;whiteSpace=wrap;connectable=0;fillColor=none;top=0;left=0;bottom=0;right=0;overflow=hidden;pointerEvents=1;align=center;" vertex="1" parent="4bi4kWeXioRVAayadUFc-59">
          <mxGeometry width="32" height="20" as="geometry">
            <mxRectangle width="32" height="20" as="alternateBounds" />
          </mxGeometry>
        </mxCell>
        <mxCell id="4bi4kWeXioRVAayadUFc-61" value="Type" style="shape=partialRectangle;html=1;whiteSpace=wrap;connectable=0;fillColor=none;top=0;left=0;bottom=0;right=0;align=left;spacingLeft=6;overflow=hidden;" vertex="1" parent="4bi4kWeXioRVAayadUFc-59">
          <mxGeometry x="32" width="122" height="20" as="geometry">
            <mxRectangle width="122" height="20" as="alternateBounds" />
          </mxGeometry>
        </mxCell>
        <mxCell id="4bi4kWeXioRVAayadUFc-62" value="UTextureType" style="shape=partialRectangle;html=1;whiteSpace=wrap;connectable=0;fillColor=none;top=0;left=0;bottom=0;right=0;align=left;spacingLeft=6;overflow=hidden;" vertex="1" parent="4bi4kWeXioRVAayadUFc-59">
          <mxGeometry x="154" width="97" height="20" as="geometry">
            <mxRectangle width="97" height="20" as="alternateBounds" />
          </mxGeometry>
        </mxCell>
        <mxCell id="4bi4kWeXioRVAayadUFc-63" value="1" style="shape=partialRectangle;html=1;whiteSpace=wrap;connectable=0;fillColor=none;top=0;left=0;bottom=0;right=0;align=left;spacingLeft=6;overflow=hidden;" vertex="1" parent="4bi4kWeXioRVAayadUFc-59">
          <mxGeometry x="251" width="29" height="20" as="geometry">
            <mxRectangle width="29" height="20" as="alternateBounds" />
          </mxGeometry>
        </mxCell>
        <mxCell id="4bi4kWeXioRVAayadUFc-100" style="edgeStyle=orthogonalEdgeStyle;rounded=0;orthogonalLoop=1;jettySize=auto;html=1;entryX=0;entryY=0.5;entryDx=0;entryDy=0;" edge="1" parent="WIyWlLk6GJQsqaUBKTNV-1" source="4bi4kWeXioRVAayadUFc-64" target="4bi4kWeXioRVAayadUFc-82">
          <mxGeometry relative="1" as="geometry">
            <Array as="points">
              <mxPoint x="10" y="970" />
              <mxPoint x="10" y="1140" />
            </Array>
          </mxGeometry>
        </mxCell>
        <mxCell id="4bi4kWeXioRVAayadUFc-102" value="TEX2D_CUBE" style="edgeLabel;html=1;align=center;verticalAlign=middle;resizable=0;points=[];" vertex="1" connectable="0" parent="4bi4kWeXioRVAayadUFc-100">
          <mxGeometry x="-0.2939" y="-3" relative="1" as="geometry">
            <mxPoint x="52" y="-7" as="offset" />
          </mxGeometry>
        </mxCell>
        <mxCell id="4bi4kWeXioRVAayadUFc-101" style="edgeStyle=orthogonalEdgeStyle;rounded=0;orthogonalLoop=1;jettySize=auto;html=1;exitX=0;exitY=0.5;exitDx=0;exitDy=0;entryX=0.5;entryY=0;entryDx=0;entryDy=0;" edge="1" parent="WIyWlLk6GJQsqaUBKTNV-1" source="4bi4kWeXioRVAayadUFc-64" target="4bi4kWeXioRVAayadUFc-67">
          <mxGeometry relative="1" as="geometry">
            <Array as="points">
              <mxPoint x="140" y="975" />
            </Array>
          </mxGeometry>
        </mxCell>
        <mxCell id="4bi4kWeXioRVAayadUFc-103" value="TEX2D" style="edgeLabel;html=1;align=center;verticalAlign=middle;resizable=0;points=[];" vertex="1" connectable="0" parent="4bi4kWeXioRVAayadUFc-101">
          <mxGeometry x="-0.4957" y="1" relative="1" as="geometry">
            <mxPoint x="-7" y="7" as="offset" />
          </mxGeometry>
        </mxCell>
        <mxCell id="4bi4kWeXioRVAayadUFc-64" value="Decide ITextureSerializer by &#39;Type&#39;" style="rounded=0;whiteSpace=wrap;html=1;strokeColor=default;" vertex="1" parent="WIyWlLk6GJQsqaUBKTNV-1">
          <mxGeometry x="187.5" y="960" width="209" height="30" as="geometry" />
        </mxCell>
        <mxCell id="4bi4kWeXioRVAayadUFc-129" style="edgeStyle=orthogonalEdgeStyle;rounded=0;orthogonalLoop=1;jettySize=auto;html=1;exitX=0.5;exitY=1;exitDx=0;exitDy=0;" edge="1" parent="WIyWlLk6GJQsqaUBKTNV-1" source="4bi4kWeXioRVAayadUFc-67">
          <mxGeometry relative="1" as="geometry">
            <mxPoint x="270" y="1240" as="targetPoint" />
            <Array as="points">
              <mxPoint x="140" y="1090" />
              <mxPoint x="270" y="1090" />
            </Array>
          </mxGeometry>
        </mxCell>
        <mxCell id="4bi4kWeXioRVAayadUFc-67" value="GfxTexture2D" style="shape=table;startSize=30;container=1;collapsible=0;childLayout=tableLayout;fixedRows=1;rowLines=0;fontStyle=0;strokeColor=default;" vertex="1" parent="WIyWlLk6GJQsqaUBKTNV-1">
          <mxGeometry x="20" y="1010" width="240" height="70" as="geometry" />
        </mxCell>
        <mxCell id="4bi4kWeXioRVAayadUFc-68" value="" style="shape=tableRow;horizontal=0;startSize=0;swimlaneHead=0;swimlaneBody=0;top=0;left=0;bottom=0;right=0;collapsible=0;dropTarget=0;fillColor=none;points=[[0,0.5],[1,0.5]];portConstraint=eastwest;" vertex="1" parent="4bi4kWeXioRVAayadUFc-67">
          <mxGeometry y="30" width="240" height="20" as="geometry" />
        </mxCell>
        <mxCell id="4bi4kWeXioRVAayadUFc-69" value="0x0" style="shape=partialRectangle;html=1;whiteSpace=wrap;connectable=0;fillColor=none;top=0;left=0;bottom=0;right=0;overflow=hidden;pointerEvents=1;align=center;" vertex="1" parent="4bi4kWeXioRVAayadUFc-68">
          <mxGeometry width="27" height="20" as="geometry">
            <mxRectangle width="27" height="20" as="alternateBounds" />
          </mxGeometry>
        </mxCell>
        <mxCell id="4bi4kWeXioRVAayadUFc-70" value="DataSize" style="shape=partialRectangle;html=1;whiteSpace=wrap;connectable=0;fillColor=none;top=0;left=0;bottom=0;right=0;align=left;spacingLeft=6;overflow=hidden;" vertex="1" parent="4bi4kWeXioRVAayadUFc-68">
          <mxGeometry x="27" width="83" height="20" as="geometry">
            <mxRectangle width="83" height="20" as="alternateBounds" />
          </mxGeometry>
        </mxCell>
        <mxCell id="4bi4kWeXioRVAayadUFc-71" value="int" style="shape=partialRectangle;html=1;whiteSpace=wrap;connectable=0;fillColor=none;top=0;left=0;bottom=0;right=0;align=left;spacingLeft=6;overflow=hidden;" vertex="1" parent="4bi4kWeXioRVAayadUFc-68">
          <mxGeometry x="110" width="60" height="20" as="geometry">
            <mxRectangle width="60" height="20" as="alternateBounds" />
          </mxGeometry>
        </mxCell>
        <mxCell id="4bi4kWeXioRVAayadUFc-72" value="4" style="shape=partialRectangle;html=1;whiteSpace=wrap;connectable=0;fillColor=none;top=0;left=0;bottom=0;right=0;align=left;spacingLeft=6;overflow=hidden;" vertex="1" parent="4bi4kWeXioRVAayadUFc-68">
          <mxGeometry x="170" width="70" height="20" as="geometry">
            <mxRectangle width="70" height="20" as="alternateBounds" />
          </mxGeometry>
        </mxCell>
        <mxCell id="4bi4kWeXioRVAayadUFc-89" style="shape=tableRow;horizontal=0;startSize=0;swimlaneHead=0;swimlaneBody=0;top=0;left=0;bottom=0;right=0;collapsible=0;dropTarget=0;fillColor=none;points=[[0,0.5],[1,0.5]];portConstraint=eastwest;" vertex="1" parent="4bi4kWeXioRVAayadUFc-67">
          <mxGeometry y="50" width="240" height="20" as="geometry" />
        </mxCell>
        <mxCell id="4bi4kWeXioRVAayadUFc-90" value="0x4" style="shape=partialRectangle;html=1;whiteSpace=wrap;connectable=0;fillColor=none;top=0;left=0;bottom=0;right=0;overflow=hidden;pointerEvents=1;align=center;" vertex="1" parent="4bi4kWeXioRVAayadUFc-89">
          <mxGeometry width="27" height="20" as="geometry">
            <mxRectangle width="27" height="20" as="alternateBounds" />
          </mxGeometry>
        </mxCell>
        <mxCell id="4bi4kWeXioRVAayadUFc-91" value="Data" style="shape=partialRectangle;html=1;whiteSpace=wrap;connectable=0;fillColor=none;top=0;left=0;bottom=0;right=0;align=left;spacingLeft=6;overflow=hidden;" vertex="1" parent="4bi4kWeXioRVAayadUFc-89">
          <mxGeometry x="27" width="83" height="20" as="geometry">
            <mxRectangle width="83" height="20" as="alternateBounds" />
          </mxGeometry>
        </mxCell>
        <mxCell id="4bi4kWeXioRVAayadUFc-92" value="byte[]" style="shape=partialRectangle;html=1;whiteSpace=wrap;connectable=0;fillColor=none;top=0;left=0;bottom=0;right=0;align=left;spacingLeft=6;overflow=hidden;" vertex="1" parent="4bi4kWeXioRVAayadUFc-89">
          <mxGeometry x="110" width="60" height="20" as="geometry">
            <mxRectangle width="60" height="20" as="alternateBounds" />
          </mxGeometry>
        </mxCell>
        <mxCell id="4bi4kWeXioRVAayadUFc-93" value="&lt;div&gt;DataSize&lt;/div&gt;" style="shape=partialRectangle;html=1;whiteSpace=wrap;connectable=0;fillColor=none;top=0;left=0;bottom=0;right=0;align=left;spacingLeft=6;overflow=hidden;" vertex="1" parent="4bi4kWeXioRVAayadUFc-89">
          <mxGeometry x="170" width="70" height="20" as="geometry">
            <mxRectangle width="70" height="20" as="alternateBounds" />
          </mxGeometry>
        </mxCell>
        <mxCell id="4bi4kWeXioRVAayadUFc-130" style="edgeStyle=orthogonalEdgeStyle;rounded=0;orthogonalLoop=1;jettySize=auto;html=1;exitX=0.5;exitY=1;exitDx=0;exitDy=0;" edge="1" parent="WIyWlLk6GJQsqaUBKTNV-1" source="4bi4kWeXioRVAayadUFc-81">
          <mxGeometry relative="1" as="geometry">
            <mxPoint x="270" y="1240" as="targetPoint" />
          </mxGeometry>
        </mxCell>
        <mxCell id="4bi4kWeXioRVAayadUFc-81" value="GfxTexture2DCube" style="shape=table;startSize=30;container=1;collapsible=0;childLayout=tableLayout;fixedRows=1;rowLines=0;fontStyle=0;strokeColor=default;" vertex="1" parent="WIyWlLk6GJQsqaUBKTNV-1">
          <mxGeometry x="20" y="1100" width="240" height="70" as="geometry" />
        </mxCell>
        <mxCell id="4bi4kWeXioRVAayadUFc-82" value="" style="shape=tableRow;horizontal=0;startSize=0;swimlaneHead=0;swimlaneBody=0;top=0;left=0;bottom=0;right=0;collapsible=0;dropTarget=0;fillColor=none;points=[[0,0.5],[1,0.5]];portConstraint=eastwest;" vertex="1" parent="4bi4kWeXioRVAayadUFc-81">
          <mxGeometry y="30" width="240" height="20" as="geometry" />
        </mxCell>
        <mxCell id="4bi4kWeXioRVAayadUFc-83" value="0x0" style="shape=partialRectangle;html=1;whiteSpace=wrap;connectable=0;fillColor=none;top=0;left=0;bottom=0;right=0;overflow=hidden;pointerEvents=1;align=center;" vertex="1" parent="4bi4kWeXioRVAayadUFc-82">
          <mxGeometry width="27" height="20" as="geometry">
            <mxRectangle width="27" height="20" as="alternateBounds" />
          </mxGeometry>
        </mxCell>
        <mxCell id="4bi4kWeXioRVAayadUFc-84" value="FaceCount" style="shape=partialRectangle;html=1;whiteSpace=wrap;connectable=0;fillColor=none;top=0;left=0;bottom=0;right=0;align=left;spacingLeft=6;overflow=hidden;" vertex="1" parent="4bi4kWeXioRVAayadUFc-82">
          <mxGeometry x="27" width="83" height="20" as="geometry">
            <mxRectangle width="83" height="20" as="alternateBounds" />
          </mxGeometry>
        </mxCell>
        <mxCell id="4bi4kWeXioRVAayadUFc-85" value="int" style="shape=partialRectangle;html=1;whiteSpace=wrap;connectable=0;fillColor=none;top=0;left=0;bottom=0;right=0;align=left;spacingLeft=6;overflow=hidden;" vertex="1" parent="4bi4kWeXioRVAayadUFc-82">
          <mxGeometry x="110" width="50" height="20" as="geometry">
            <mxRectangle width="50" height="20" as="alternateBounds" />
          </mxGeometry>
        </mxCell>
        <mxCell id="4bi4kWeXioRVAayadUFc-86" value="1" style="shape=partialRectangle;html=1;whiteSpace=wrap;connectable=0;fillColor=none;top=0;left=0;bottom=0;right=0;align=left;spacingLeft=6;overflow=hidden;" vertex="1" parent="4bi4kWeXioRVAayadUFc-82">
          <mxGeometry x="160" width="80" height="20" as="geometry">
            <mxRectangle width="80" height="20" as="alternateBounds" />
          </mxGeometry>
        </mxCell>
        <mxCell id="4bi4kWeXioRVAayadUFc-94" style="shape=tableRow;horizontal=0;startSize=0;swimlaneHead=0;swimlaneBody=0;top=0;left=0;bottom=0;right=0;collapsible=0;dropTarget=0;fillColor=none;points=[[0,0.5],[1,0.5]];portConstraint=eastwest;" vertex="1" parent="4bi4kWeXioRVAayadUFc-81">
          <mxGeometry y="50" width="240" height="20" as="geometry" />
        </mxCell>
        <mxCell id="4bi4kWeXioRVAayadUFc-95" value="0x1" style="shape=partialRectangle;html=1;whiteSpace=wrap;connectable=0;fillColor=none;top=0;left=0;bottom=0;right=0;overflow=hidden;pointerEvents=1;align=center;" vertex="1" parent="4bi4kWeXioRVAayadUFc-94">
          <mxGeometry width="27" height="20" as="geometry">
            <mxRectangle width="27" height="20" as="alternateBounds" />
          </mxGeometry>
        </mxCell>
        <mxCell id="4bi4kWeXioRVAayadUFc-96" value="Faces" style="shape=partialRectangle;html=1;whiteSpace=wrap;connectable=0;fillColor=none;top=0;left=0;bottom=0;right=0;align=left;spacingLeft=6;overflow=hidden;" vertex="1" parent="4bi4kWeXioRVAayadUFc-94">
          <mxGeometry x="27" width="83" height="20" as="geometry">
            <mxRectangle width="83" height="20" as="alternateBounds" />
          </mxGeometry>
        </mxCell>
        <mxCell id="4bi4kWeXioRVAayadUFc-97" value="Face[]" style="shape=partialRectangle;html=1;whiteSpace=wrap;connectable=0;fillColor=none;top=0;left=0;bottom=0;right=0;align=left;spacingLeft=6;overflow=hidden;" vertex="1" parent="4bi4kWeXioRVAayadUFc-94">
          <mxGeometry x="110" width="50" height="20" as="geometry">
            <mxRectangle width="50" height="20" as="alternateBounds" />
          </mxGeometry>
        </mxCell>
        <mxCell id="4bi4kWeXioRVAayadUFc-98" value="FaceCount*" style="shape=partialRectangle;html=1;whiteSpace=wrap;connectable=0;fillColor=none;top=0;left=0;bottom=0;right=0;align=left;spacingLeft=6;overflow=hidden;" vertex="1" parent="4bi4kWeXioRVAayadUFc-94">
          <mxGeometry x="160" width="80" height="20" as="geometry">
            <mxRectangle width="80" height="20" as="alternateBounds" />
          </mxGeometry>
        </mxCell>
        <mxCell id="4bi4kWeXioRVAayadUFc-104" value="GfxTexture2DCube.Face" style="shape=table;startSize=30;container=1;collapsible=0;childLayout=tableLayout;fixedRows=1;rowLines=0;fontStyle=0;strokeColor=default;" vertex="1" parent="WIyWlLk6GJQsqaUBKTNV-1">
          <mxGeometry x="292" y="1100" width="290" height="70" as="geometry" />
        </mxCell>
        <mxCell id="4bi4kWeXioRVAayadUFc-105" value="" style="shape=tableRow;horizontal=0;startSize=0;swimlaneHead=0;swimlaneBody=0;top=0;left=0;bottom=0;right=0;collapsible=0;dropTarget=0;fillColor=none;points=[[0,0.5],[1,0.5]];portConstraint=eastwest;" vertex="1" parent="4bi4kWeXioRVAayadUFc-104">
          <mxGeometry y="30" width="290" height="20" as="geometry" />
        </mxCell>
        <mxCell id="4bi4kWeXioRVAayadUFc-106" value="0x0" style="shape=partialRectangle;html=1;whiteSpace=wrap;connectable=0;fillColor=none;top=0;left=0;bottom=0;right=0;overflow=hidden;pointerEvents=1;align=center;" vertex="1" parent="4bi4kWeXioRVAayadUFc-105">
          <mxGeometry width="32" height="20" as="geometry">
            <mxRectangle width="32" height="20" as="alternateBounds" />
          </mxGeometry>
        </mxCell>
        <mxCell id="4bi4kWeXioRVAayadUFc-107" value="Assignment" style="shape=partialRectangle;html=1;whiteSpace=wrap;connectable=0;fillColor=none;top=0;left=0;bottom=0;right=0;align=left;spacingLeft=6;overflow=hidden;" vertex="1" parent="4bi4kWeXioRVAayadUFc-105">
          <mxGeometry x="32" width="86" height="20" as="geometry">
            <mxRectangle width="86" height="20" as="alternateBounds" />
          </mxGeometry>
        </mxCell>
        <mxCell id="4bi4kWeXioRVAayadUFc-108" value="UTextureFaceAssignment" style="shape=partialRectangle;html=1;whiteSpace=wrap;connectable=0;fillColor=none;top=0;left=0;bottom=0;right=0;align=left;spacingLeft=6;overflow=hidden;" vertex="1" parent="4bi4kWeXioRVAayadUFc-105">
          <mxGeometry x="118" width="151" height="20" as="geometry">
            <mxRectangle width="151" height="20" as="alternateBounds" />
          </mxGeometry>
        </mxCell>
        <mxCell id="4bi4kWeXioRVAayadUFc-109" value="1" style="shape=partialRectangle;html=1;whiteSpace=wrap;connectable=0;fillColor=none;top=0;left=0;bottom=0;right=0;align=left;spacingLeft=6;overflow=hidden;" vertex="1" parent="4bi4kWeXioRVAayadUFc-105">
          <mxGeometry x="269" width="21" height="20" as="geometry">
            <mxRectangle width="21" height="20" as="alternateBounds" />
          </mxGeometry>
        </mxCell>
        <mxCell id="4bi4kWeXioRVAayadUFc-110" style="shape=tableRow;horizontal=0;startSize=0;swimlaneHead=0;swimlaneBody=0;top=0;left=0;bottom=0;right=0;collapsible=0;dropTarget=0;fillColor=none;points=[[0,0.5],[1,0.5]];portConstraint=eastwest;" vertex="1" parent="4bi4kWeXioRVAayadUFc-104">
          <mxGeometry y="50" width="290" height="20" as="geometry" />
        </mxCell>
        <mxCell id="4bi4kWeXioRVAayadUFc-111" value="0x1" style="shape=partialRectangle;html=1;whiteSpace=wrap;connectable=0;fillColor=none;top=0;left=0;bottom=0;right=0;overflow=hidden;pointerEvents=1;align=center;" vertex="1" parent="4bi4kWeXioRVAayadUFc-110">
          <mxGeometry width="32" height="20" as="geometry">
            <mxRectangle width="32" height="20" as="alternateBounds" />
          </mxGeometry>
        </mxCell>
        <mxCell id="4bi4kWeXioRVAayadUFc-112" value="Texture" style="shape=partialRectangle;html=1;whiteSpace=wrap;connectable=0;fillColor=none;top=0;left=0;bottom=0;right=0;align=left;spacingLeft=6;overflow=hidden;" vertex="1" parent="4bi4kWeXioRVAayadUFc-110">
          <mxGeometry x="32" width="86" height="20" as="geometry">
            <mxRectangle width="86" height="20" as="alternateBounds" />
          </mxGeometry>
        </mxCell>
        <mxCell id="4bi4kWeXioRVAayadUFc-113" value="GfxTexture2D" style="shape=partialRectangle;html=1;whiteSpace=wrap;connectable=0;fillColor=none;top=0;left=0;bottom=0;right=0;align=left;spacingLeft=6;overflow=hidden;" vertex="1" parent="4bi4kWeXioRVAayadUFc-110">
          <mxGeometry x="118" width="151" height="20" as="geometry">
            <mxRectangle width="151" height="20" as="alternateBounds" />
          </mxGeometry>
        </mxCell>
        <mxCell id="4bi4kWeXioRVAayadUFc-114" value="-" style="shape=partialRectangle;html=1;whiteSpace=wrap;connectable=0;fillColor=none;top=0;left=0;bottom=0;right=0;align=left;spacingLeft=6;overflow=hidden;" vertex="1" parent="4bi4kWeXioRVAayadUFc-110">
          <mxGeometry x="269" width="21" height="20" as="geometry">
            <mxRectangle width="21" height="20" as="alternateBounds" />
          </mxGeometry>
        </mxCell>
        <mxCell id="4bi4kWeXioRVAayadUFc-115" style="edgeStyle=orthogonalEdgeStyle;rounded=0;orthogonalLoop=1;jettySize=auto;html=1;exitX=1;exitY=0.5;exitDx=0;exitDy=0;entryX=0.5;entryY=0;entryDx=0;entryDy=0;" edge="1" parent="WIyWlLk6GJQsqaUBKTNV-1" source="4bi4kWeXioRVAayadUFc-94" target="4bi4kWeXioRVAayadUFc-104">
          <mxGeometry relative="1" as="geometry">
            <Array as="points">
              <mxPoint x="280" y="1160" />
              <mxPoint x="280" y="1080" />
              <mxPoint x="437" y="1080" />
            </Array>
          </mxGeometry>
        </mxCell>
        <mxCell id="4bi4kWeXioRVAayadUFc-117" value="GfxTexture2DCommon" style="shape=table;startSize=30;container=1;collapsible=0;childLayout=tableLayout;fixedRows=1;rowLines=0;fontStyle=0;strokeColor=default;" vertex="1" parent="WIyWlLk6GJQsqaUBKTNV-1">
          <mxGeometry x="20" y="1241" width="289" height="130" as="geometry" />
        </mxCell>
        <mxCell id="4bi4kWeXioRVAayadUFc-118" value="" style="shape=tableRow;horizontal=0;startSize=0;swimlaneHead=0;swimlaneBody=0;top=0;left=0;bottom=0;right=0;collapsible=0;dropTarget=0;fillColor=none;points=[[0,0.5],[1,0.5]];portConstraint=eastwest;" vertex="1" parent="4bi4kWeXioRVAayadUFc-117">
          <mxGeometry y="30" width="289" height="20" as="geometry" />
        </mxCell>
        <mxCell id="4bi4kWeXioRVAayadUFc-119" value="0x0" style="shape=partialRectangle;html=1;whiteSpace=wrap;connectable=0;fillColor=none;top=0;left=0;bottom=0;right=0;overflow=hidden;pointerEvents=1;align=center;" vertex="1" parent="4bi4kWeXioRVAayadUFc-118">
          <mxGeometry width="33" height="20" as="geometry">
            <mxRectangle width="33" height="20" as="alternateBounds" />
          </mxGeometry>
        </mxCell>
        <mxCell id="4bi4kWeXioRVAayadUFc-120" value="Name" style="shape=partialRectangle;html=1;whiteSpace=wrap;connectable=0;fillColor=none;top=0;left=0;bottom=0;right=0;align=left;spacingLeft=6;overflow=hidden;" vertex="1" parent="4bi4kWeXioRVAayadUFc-118">
          <mxGeometry x="33" width="80" height="20" as="geometry">
            <mxRectangle width="80" height="20" as="alternateBounds" />
          </mxGeometry>
        </mxCell>
        <mxCell id="4bi4kWeXioRVAayadUFc-121" value="String" style="shape=partialRectangle;html=1;whiteSpace=wrap;connectable=0;fillColor=none;top=0;left=0;bottom=0;right=0;align=left;spacingLeft=6;overflow=hidden;" vertex="1" parent="4bi4kWeXioRVAayadUFc-118">
          <mxGeometry x="113" width="140" height="20" as="geometry">
            <mxRectangle width="140" height="20" as="alternateBounds" />
          </mxGeometry>
        </mxCell>
        <mxCell id="4bi4kWeXioRVAayadUFc-122" value="-" style="shape=partialRectangle;html=1;whiteSpace=wrap;connectable=0;fillColor=none;top=0;left=0;bottom=0;right=0;align=left;spacingLeft=6;overflow=hidden;" vertex="1" parent="4bi4kWeXioRVAayadUFc-118">
          <mxGeometry x="253" width="36" height="20" as="geometry">
            <mxRectangle width="36" height="20" as="alternateBounds" />
          </mxGeometry>
        </mxCell>
        <mxCell id="4bi4kWeXioRVAayadUFc-123" style="shape=tableRow;horizontal=0;startSize=0;swimlaneHead=0;swimlaneBody=0;top=0;left=0;bottom=0;right=0;collapsible=0;dropTarget=0;fillColor=none;points=[[0,0.5],[1,0.5]];portConstraint=eastwest;" vertex="1" parent="4bi4kWeXioRVAayadUFc-117">
          <mxGeometry y="50" width="289" height="20" as="geometry" />
        </mxCell>
        <mxCell id="4bi4kWeXioRVAayadUFc-124" value="+0x0" style="shape=partialRectangle;html=1;whiteSpace=wrap;connectable=0;fillColor=none;top=0;left=0;bottom=0;right=0;overflow=hidden;pointerEvents=1;align=center;" vertex="1" parent="4bi4kWeXioRVAayadUFc-123">
          <mxGeometry width="33" height="20" as="geometry">
            <mxRectangle width="33" height="20" as="alternateBounds" />
          </mxGeometry>
        </mxCell>
        <mxCell id="4bi4kWeXioRVAayadUFc-125" value="Width" style="shape=partialRectangle;html=1;whiteSpace=wrap;connectable=0;fillColor=none;top=0;left=0;bottom=0;right=0;align=left;spacingLeft=6;overflow=hidden;" vertex="1" parent="4bi4kWeXioRVAayadUFc-123">
          <mxGeometry x="33" width="80" height="20" as="geometry">
            <mxRectangle width="80" height="20" as="alternateBounds" />
          </mxGeometry>
        </mxCell>
        <mxCell id="4bi4kWeXioRVAayadUFc-126" value="int" style="shape=partialRectangle;html=1;whiteSpace=wrap;connectable=0;fillColor=none;top=0;left=0;bottom=0;right=0;align=left;spacingLeft=6;overflow=hidden;" vertex="1" parent="4bi4kWeXioRVAayadUFc-123">
          <mxGeometry x="113" width="140" height="20" as="geometry">
            <mxRectangle width="140" height="20" as="alternateBounds" />
          </mxGeometry>
        </mxCell>
        <mxCell id="4bi4kWeXioRVAayadUFc-127" value="2" style="shape=partialRectangle;html=1;whiteSpace=wrap;connectable=0;fillColor=none;top=0;left=0;bottom=0;right=0;align=left;spacingLeft=6;overflow=hidden;" vertex="1" parent="4bi4kWeXioRVAayadUFc-123">
          <mxGeometry x="253" width="36" height="20" as="geometry">
            <mxRectangle width="36" height="20" as="alternateBounds" />
          </mxGeometry>
        </mxCell>
        <mxCell id="4bi4kWeXioRVAayadUFc-131" style="shape=tableRow;horizontal=0;startSize=0;swimlaneHead=0;swimlaneBody=0;top=0;left=0;bottom=0;right=0;collapsible=0;dropTarget=0;fillColor=none;points=[[0,0.5],[1,0.5]];portConstraint=eastwest;" vertex="1" parent="4bi4kWeXioRVAayadUFc-117">
          <mxGeometry y="70" width="289" height="20" as="geometry" />
        </mxCell>
        <mxCell id="4bi4kWeXioRVAayadUFc-132" value="+0x2" style="shape=partialRectangle;html=1;whiteSpace=wrap;connectable=0;fillColor=none;top=0;left=0;bottom=0;right=0;overflow=hidden;pointerEvents=1;align=center;" vertex="1" parent="4bi4kWeXioRVAayadUFc-131">
          <mxGeometry width="33" height="20" as="geometry">
            <mxRectangle width="33" height="20" as="alternateBounds" />
          </mxGeometry>
        </mxCell>
        <mxCell id="4bi4kWeXioRVAayadUFc-133" value="Height" style="shape=partialRectangle;html=1;whiteSpace=wrap;connectable=0;fillColor=none;top=0;left=0;bottom=0;right=0;align=left;spacingLeft=6;overflow=hidden;" vertex="1" parent="4bi4kWeXioRVAayadUFc-131">
          <mxGeometry x="33" width="80" height="20" as="geometry">
            <mxRectangle width="80" height="20" as="alternateBounds" />
          </mxGeometry>
        </mxCell>
        <mxCell id="4bi4kWeXioRVAayadUFc-134" value="int" style="shape=partialRectangle;html=1;whiteSpace=wrap;connectable=0;fillColor=none;top=0;left=0;bottom=0;right=0;align=left;spacingLeft=6;overflow=hidden;" vertex="1" parent="4bi4kWeXioRVAayadUFc-131">
          <mxGeometry x="113" width="140" height="20" as="geometry">
            <mxRectangle width="140" height="20" as="alternateBounds" />
          </mxGeometry>
        </mxCell>
        <mxCell id="4bi4kWeXioRVAayadUFc-135" value="2" style="shape=partialRectangle;html=1;whiteSpace=wrap;connectable=0;fillColor=none;top=0;left=0;bottom=0;right=0;align=left;spacingLeft=6;overflow=hidden;" vertex="1" parent="4bi4kWeXioRVAayadUFc-131">
          <mxGeometry x="253" width="36" height="20" as="geometry">
            <mxRectangle width="36" height="20" as="alternateBounds" />
          </mxGeometry>
        </mxCell>
        <mxCell id="4bi4kWeXioRVAayadUFc-136" style="shape=tableRow;horizontal=0;startSize=0;swimlaneHead=0;swimlaneBody=0;top=0;left=0;bottom=0;right=0;collapsible=0;dropTarget=0;fillColor=none;points=[[0,0.5],[1,0.5]];portConstraint=eastwest;" vertex="1" parent="4bi4kWeXioRVAayadUFc-117">
          <mxGeometry y="90" width="289" height="20" as="geometry" />
        </mxCell>
        <mxCell id="4bi4kWeXioRVAayadUFc-137" value="+0x4" style="shape=partialRectangle;html=1;whiteSpace=wrap;connectable=0;fillColor=none;top=0;left=0;bottom=0;right=0;overflow=hidden;pointerEvents=1;align=center;" vertex="1" parent="4bi4kWeXioRVAayadUFc-136">
          <mxGeometry width="33" height="20" as="geometry">
            <mxRectangle width="33" height="20" as="alternateBounds" />
          </mxGeometry>
        </mxCell>
        <mxCell id="4bi4kWeXioRVAayadUFc-138" value="Format" style="shape=partialRectangle;html=1;whiteSpace=wrap;connectable=0;fillColor=none;top=0;left=0;bottom=0;right=0;align=left;spacingLeft=6;overflow=hidden;" vertex="1" parent="4bi4kWeXioRVAayadUFc-136">
          <mxGeometry x="33" width="80" height="20" as="geometry">
            <mxRectangle width="80" height="20" as="alternateBounds" />
          </mxGeometry>
        </mxCell>
        <mxCell id="4bi4kWeXioRVAayadUFc-139" value="UTextureFormat" style="shape=partialRectangle;html=1;whiteSpace=wrap;connectable=0;fillColor=none;top=0;left=0;bottom=0;right=0;align=left;spacingLeft=6;overflow=hidden;" vertex="1" parent="4bi4kWeXioRVAayadUFc-136">
          <mxGeometry x="113" width="140" height="20" as="geometry">
            <mxRectangle width="140" height="20" as="alternateBounds" />
          </mxGeometry>
        </mxCell>
        <mxCell id="4bi4kWeXioRVAayadUFc-140" value="1" style="shape=partialRectangle;html=1;whiteSpace=wrap;connectable=0;fillColor=none;top=0;left=0;bottom=0;right=0;align=left;spacingLeft=6;overflow=hidden;" vertex="1" parent="4bi4kWeXioRVAayadUFc-136">
          <mxGeometry x="253" width="36" height="20" as="geometry">
            <mxRectangle width="36" height="20" as="alternateBounds" />
          </mxGeometry>
        </mxCell>
        <mxCell id="4bi4kWeXioRVAayadUFc-141" style="shape=tableRow;horizontal=0;startSize=0;swimlaneHead=0;swimlaneBody=0;top=0;left=0;bottom=0;right=0;collapsible=0;dropTarget=0;fillColor=none;points=[[0,0.5],[1,0.5]];portConstraint=eastwest;" vertex="1" parent="4bi4kWeXioRVAayadUFc-117">
          <mxGeometry y="110" width="289" height="20" as="geometry" />
        </mxCell>
        <mxCell id="4bi4kWeXioRVAayadUFc-142" value="+0x5" style="shape=partialRectangle;html=1;whiteSpace=wrap;connectable=0;fillColor=none;top=0;left=0;bottom=0;right=0;overflow=hidden;pointerEvents=1;align=center;" vertex="1" parent="4bi4kWeXioRVAayadUFc-141">
          <mxGeometry width="33" height="20" as="geometry">
            <mxRectangle width="33" height="20" as="alternateBounds" />
          </mxGeometry>
        </mxCell>
        <mxCell id="4bi4kWeXioRVAayadUFc-143" value="SwizzleMask" style="shape=partialRectangle;html=1;whiteSpace=wrap;connectable=0;fillColor=none;top=0;left=0;bottom=0;right=0;align=left;spacingLeft=6;overflow=hidden;" vertex="1" parent="4bi4kWeXioRVAayadUFc-141">
          <mxGeometry x="33" width="80" height="20" as="geometry">
            <mxRectangle width="80" height="20" as="alternateBounds" />
          </mxGeometry>
        </mxCell>
        <mxCell id="4bi4kWeXioRVAayadUFc-144" value="SwizzleMask" style="shape=partialRectangle;html=1;whiteSpace=wrap;connectable=0;fillColor=none;top=0;left=0;bottom=0;right=0;align=left;spacingLeft=6;overflow=hidden;" vertex="1" parent="4bi4kWeXioRVAayadUFc-141">
          <mxGeometry x="113" width="140" height="20" as="geometry">
            <mxRectangle width="140" height="20" as="alternateBounds" />
          </mxGeometry>
        </mxCell>
        <mxCell id="4bi4kWeXioRVAayadUFc-145" value="4" style="shape=partialRectangle;html=1;whiteSpace=wrap;connectable=0;fillColor=none;top=0;left=0;bottom=0;right=0;align=left;spacingLeft=6;overflow=hidden;" vertex="1" parent="4bi4kWeXioRVAayadUFc-141">
          <mxGeometry x="253" width="36" height="20" as="geometry">
            <mxRectangle width="36" height="20" as="alternateBounds" />
          </mxGeometry>
        </mxCell>
        <mxCell id="4bi4kWeXioRVAayadUFc-147" value="GfxTexture.SwizzleMask" style="shape=table;startSize=30;container=1;collapsible=0;childLayout=tableLayout;fixedRows=1;rowLines=0;fontStyle=0;strokeColor=default;" vertex="1" parent="WIyWlLk6GJQsqaUBKTNV-1">
          <mxGeometry x="331" y="1241" width="240" height="110" as="geometry" />
        </mxCell>
        <mxCell id="4bi4kWeXioRVAayadUFc-148" value="" style="shape=tableRow;horizontal=0;startSize=0;swimlaneHead=0;swimlaneBody=0;top=0;left=0;bottom=0;right=0;collapsible=0;dropTarget=0;fillColor=none;points=[[0,0.5],[1,0.5]];portConstraint=eastwest;" vertex="1" parent="4bi4kWeXioRVAayadUFc-147">
          <mxGeometry y="30" width="240" height="20" as="geometry" />
        </mxCell>
        <mxCell id="4bi4kWeXioRVAayadUFc-149" value="0x0" style="shape=partialRectangle;html=1;whiteSpace=wrap;connectable=0;fillColor=none;top=0;left=0;bottom=0;right=0;overflow=hidden;pointerEvents=1;align=center;" vertex="1" parent="4bi4kWeXioRVAayadUFc-148">
          <mxGeometry width="27" height="20" as="geometry">
            <mxRectangle width="27" height="20" as="alternateBounds" />
          </mxGeometry>
        </mxCell>
        <mxCell id="4bi4kWeXioRVAayadUFc-150" value="R" style="shape=partialRectangle;html=1;whiteSpace=wrap;connectable=0;fillColor=none;top=0;left=0;bottom=0;right=0;align=left;spacingLeft=6;overflow=hidden;" vertex="1" parent="4bi4kWeXioRVAayadUFc-148">
          <mxGeometry x="27" width="32" height="20" as="geometry">
            <mxRectangle width="32" height="20" as="alternateBounds" />
          </mxGeometry>
        </mxCell>
        <mxCell id="4bi4kWeXioRVAayadUFc-151" value="UTextureSwizzleChannel" style="shape=partialRectangle;html=1;whiteSpace=wrap;connectable=0;fillColor=none;top=0;left=0;bottom=0;right=0;align=left;spacingLeft=6;overflow=hidden;" vertex="1" parent="4bi4kWeXioRVAayadUFc-148">
          <mxGeometry x="59" width="150" height="20" as="geometry">
            <mxRectangle width="150" height="20" as="alternateBounds" />
          </mxGeometry>
        </mxCell>
        <mxCell id="4bi4kWeXioRVAayadUFc-152" value="1" style="shape=partialRectangle;html=1;whiteSpace=wrap;connectable=0;fillColor=none;top=0;left=0;bottom=0;right=0;align=left;spacingLeft=6;overflow=hidden;" vertex="1" parent="4bi4kWeXioRVAayadUFc-148">
          <mxGeometry x="209" width="31" height="20" as="geometry">
            <mxRectangle width="31" height="20" as="alternateBounds" />
          </mxGeometry>
        </mxCell>
        <mxCell id="4bi4kWeXioRVAayadUFc-153" style="shape=tableRow;horizontal=0;startSize=0;swimlaneHead=0;swimlaneBody=0;top=0;left=0;bottom=0;right=0;collapsible=0;dropTarget=0;fillColor=none;points=[[0,0.5],[1,0.5]];portConstraint=eastwest;" vertex="1" parent="4bi4kWeXioRVAayadUFc-147">
          <mxGeometry y="50" width="240" height="20" as="geometry" />
        </mxCell>
        <mxCell id="4bi4kWeXioRVAayadUFc-154" value="0x1" style="shape=partialRectangle;html=1;whiteSpace=wrap;connectable=0;fillColor=none;top=0;left=0;bottom=0;right=0;overflow=hidden;pointerEvents=1;align=center;" vertex="1" parent="4bi4kWeXioRVAayadUFc-153">
          <mxGeometry width="27" height="20" as="geometry">
            <mxRectangle width="27" height="20" as="alternateBounds" />
          </mxGeometry>
        </mxCell>
        <mxCell id="4bi4kWeXioRVAayadUFc-155" value="G" style="shape=partialRectangle;html=1;whiteSpace=wrap;connectable=0;fillColor=none;top=0;left=0;bottom=0;right=0;align=left;spacingLeft=6;overflow=hidden;" vertex="1" parent="4bi4kWeXioRVAayadUFc-153">
          <mxGeometry x="27" width="32" height="20" as="geometry">
            <mxRectangle width="32" height="20" as="alternateBounds" />
          </mxGeometry>
        </mxCell>
        <mxCell id="4bi4kWeXioRVAayadUFc-156" value="UTextureSwizzleChannel" style="shape=partialRectangle;html=1;whiteSpace=wrap;connectable=0;fillColor=none;top=0;left=0;bottom=0;right=0;align=left;spacingLeft=6;overflow=hidden;" vertex="1" parent="4bi4kWeXioRVAayadUFc-153">
          <mxGeometry x="59" width="150" height="20" as="geometry">
            <mxRectangle width="150" height="20" as="alternateBounds" />
          </mxGeometry>
        </mxCell>
        <mxCell id="4bi4kWeXioRVAayadUFc-157" value="1" style="shape=partialRectangle;html=1;whiteSpace=wrap;connectable=0;fillColor=none;top=0;left=0;bottom=0;right=0;align=left;spacingLeft=6;overflow=hidden;" vertex="1" parent="4bi4kWeXioRVAayadUFc-153">
          <mxGeometry x="209" width="31" height="20" as="geometry">
            <mxRectangle width="31" height="20" as="alternateBounds" />
          </mxGeometry>
        </mxCell>
        <mxCell id="4bi4kWeXioRVAayadUFc-159" style="shape=tableRow;horizontal=0;startSize=0;swimlaneHead=0;swimlaneBody=0;top=0;left=0;bottom=0;right=0;collapsible=0;dropTarget=0;fillColor=none;points=[[0,0.5],[1,0.5]];portConstraint=eastwest;" vertex="1" parent="4bi4kWeXioRVAayadUFc-147">
          <mxGeometry y="70" width="240" height="20" as="geometry" />
        </mxCell>
        <mxCell id="4bi4kWeXioRVAayadUFc-160" value="0x2" style="shape=partialRectangle;html=1;whiteSpace=wrap;connectable=0;fillColor=none;top=0;left=0;bottom=0;right=0;overflow=hidden;pointerEvents=1;align=center;" vertex="1" parent="4bi4kWeXioRVAayadUFc-159">
          <mxGeometry width="27" height="20" as="geometry">
            <mxRectangle width="27" height="20" as="alternateBounds" />
          </mxGeometry>
        </mxCell>
        <mxCell id="4bi4kWeXioRVAayadUFc-161" value="B" style="shape=partialRectangle;html=1;whiteSpace=wrap;connectable=0;fillColor=none;top=0;left=0;bottom=0;right=0;align=left;spacingLeft=6;overflow=hidden;" vertex="1" parent="4bi4kWeXioRVAayadUFc-159">
          <mxGeometry x="27" width="32" height="20" as="geometry">
            <mxRectangle width="32" height="20" as="alternateBounds" />
          </mxGeometry>
        </mxCell>
        <mxCell id="4bi4kWeXioRVAayadUFc-162" value="UTextureSwizzleChannel" style="shape=partialRectangle;html=1;whiteSpace=wrap;connectable=0;fillColor=none;top=0;left=0;bottom=0;right=0;align=left;spacingLeft=6;overflow=hidden;" vertex="1" parent="4bi4kWeXioRVAayadUFc-159">
          <mxGeometry x="59" width="150" height="20" as="geometry">
            <mxRectangle width="150" height="20" as="alternateBounds" />
          </mxGeometry>
        </mxCell>
        <mxCell id="4bi4kWeXioRVAayadUFc-163" value="1" style="shape=partialRectangle;html=1;whiteSpace=wrap;connectable=0;fillColor=none;top=0;left=0;bottom=0;right=0;align=left;spacingLeft=6;overflow=hidden;" vertex="1" parent="4bi4kWeXioRVAayadUFc-159">
          <mxGeometry x="209" width="31" height="20" as="geometry">
            <mxRectangle width="31" height="20" as="alternateBounds" />
          </mxGeometry>
        </mxCell>
        <mxCell id="4bi4kWeXioRVAayadUFc-164" style="shape=tableRow;horizontal=0;startSize=0;swimlaneHead=0;swimlaneBody=0;top=0;left=0;bottom=0;right=0;collapsible=0;dropTarget=0;fillColor=none;points=[[0,0.5],[1,0.5]];portConstraint=eastwest;" vertex="1" parent="4bi4kWeXioRVAayadUFc-147">
          <mxGeometry y="90" width="240" height="20" as="geometry" />
        </mxCell>
        <mxCell id="4bi4kWeXioRVAayadUFc-165" value="0x3" style="shape=partialRectangle;html=1;whiteSpace=wrap;connectable=0;fillColor=none;top=0;left=0;bottom=0;right=0;overflow=hidden;pointerEvents=1;align=center;" vertex="1" parent="4bi4kWeXioRVAayadUFc-164">
          <mxGeometry width="27" height="20" as="geometry">
            <mxRectangle width="27" height="20" as="alternateBounds" />
          </mxGeometry>
        </mxCell>
        <mxCell id="4bi4kWeXioRVAayadUFc-166" value="A" style="shape=partialRectangle;html=1;whiteSpace=wrap;connectable=0;fillColor=none;top=0;left=0;bottom=0;right=0;align=left;spacingLeft=6;overflow=hidden;" vertex="1" parent="4bi4kWeXioRVAayadUFc-164">
          <mxGeometry x="27" width="32" height="20" as="geometry">
            <mxRectangle width="32" height="20" as="alternateBounds" />
          </mxGeometry>
        </mxCell>
        <mxCell id="4bi4kWeXioRVAayadUFc-167" value="UTextureSwizzleChannel" style="shape=partialRectangle;html=1;whiteSpace=wrap;connectable=0;fillColor=none;top=0;left=0;bottom=0;right=0;align=left;spacingLeft=6;overflow=hidden;" vertex="1" parent="4bi4kWeXioRVAayadUFc-164">
          <mxGeometry x="59" width="150" height="20" as="geometry">
            <mxRectangle width="150" height="20" as="alternateBounds" />
          </mxGeometry>
        </mxCell>
        <mxCell id="4bi4kWeXioRVAayadUFc-168" value="1" style="shape=partialRectangle;html=1;whiteSpace=wrap;connectable=0;fillColor=none;top=0;left=0;bottom=0;right=0;align=left;spacingLeft=6;overflow=hidden;" vertex="1" parent="4bi4kWeXioRVAayadUFc-164">
          <mxGeometry x="209" width="31" height="20" as="geometry">
            <mxRectangle width="31" height="20" as="alternateBounds" />
          </mxGeometry>
        </mxCell>
        <mxCell id="4bi4kWeXioRVAayadUFc-158" style="edgeStyle=orthogonalEdgeStyle;rounded=0;orthogonalLoop=1;jettySize=auto;html=1;exitX=1;exitY=0.5;exitDx=0;exitDy=0;fontSize=12;" edge="1" parent="WIyWlLk6GJQsqaUBKTNV-1" source="4bi4kWeXioRVAayadUFc-141">
          <mxGeometry relative="1" as="geometry">
            <mxPoint x="470" y="1240" as="targetPoint" />
            <Array as="points">
              <mxPoint x="320" y="1361" />
              <mxPoint x="320" y="1220" />
              <mxPoint x="470" y="1220" />
            </Array>
          </mxGeometry>
        </mxCell>
        <mxCell id="4bi4kWeXioRVAayadUFc-171" value="GfxMesh [MESH]" style="text;strokeColor=none;fillColor=none;html=1;fontSize=24;fontStyle=1;verticalAlign=middle;align=center;" vertex="1" parent="WIyWlLk6GJQsqaUBKTNV-1">
          <mxGeometry x="176" y="1680" width="230" height="40" as="geometry" />
        </mxCell>
        <mxCell id="4bi4kWeXioRVAayadUFc-172" value="GfxMesh" style="shape=table;startSize=30;container=1;collapsible=0;childLayout=tableLayout;fixedRows=1;rowLines=0;fontStyle=0;strokeColor=default;" vertex="1" parent="WIyWlLk6GJQsqaUBKTNV-1">
          <mxGeometry x="115.25" y="1720" width="351.5" height="210" as="geometry" />
        </mxCell>
        <mxCell id="4bi4kWeXioRVAayadUFc-173" value="" style="shape=tableRow;horizontal=0;startSize=0;swimlaneHead=0;swimlaneBody=0;top=0;left=0;bottom=0;right=0;collapsible=0;dropTarget=0;fillColor=none;points=[[0,0.5],[1,0.5]];portConstraint=eastwest;" vertex="1" parent="4bi4kWeXioRVAayadUFc-172">
          <mxGeometry y="30" width="351.5" height="20" as="geometry" />
        </mxCell>
        <mxCell id="4bi4kWeXioRVAayadUFc-174" value="0x0" style="shape=partialRectangle;html=1;whiteSpace=wrap;connectable=0;fillColor=none;top=0;left=0;bottom=0;right=0;overflow=hidden;pointerEvents=1;align=center;" vertex="1" parent="4bi4kWeXioRVAayadUFc-173">
          <mxGeometry width="48" height="20" as="geometry">
            <mxRectangle width="48" height="20" as="alternateBounds" />
          </mxGeometry>
        </mxCell>
        <mxCell id="4bi4kWeXioRVAayadUFc-175" value="Name" style="shape=partialRectangle;html=1;whiteSpace=wrap;connectable=0;fillColor=none;top=0;left=0;bottom=0;right=0;align=left;spacingLeft=6;overflow=hidden;" vertex="1" parent="4bi4kWeXioRVAayadUFc-173">
          <mxGeometry x="48" width="102" height="20" as="geometry">
            <mxRectangle width="102" height="20" as="alternateBounds" />
          </mxGeometry>
        </mxCell>
        <mxCell id="4bi4kWeXioRVAayadUFc-176" value="String" style="shape=partialRectangle;html=1;whiteSpace=wrap;connectable=0;fillColor=none;top=0;left=0;bottom=0;right=0;align=left;spacingLeft=6;overflow=hidden;" vertex="1" parent="4bi4kWeXioRVAayadUFc-173">
          <mxGeometry x="150" width="110" height="20" as="geometry">
            <mxRectangle width="110" height="20" as="alternateBounds" />
          </mxGeometry>
        </mxCell>
        <mxCell id="4bi4kWeXioRVAayadUFc-177" value="-" style="shape=partialRectangle;html=1;whiteSpace=wrap;connectable=0;fillColor=none;top=0;left=0;bottom=0;right=0;align=left;spacingLeft=6;overflow=hidden;" vertex="1" parent="4bi4kWeXioRVAayadUFc-173">
          <mxGeometry x="260" width="92" height="20" as="geometry">
            <mxRectangle width="92" height="20" as="alternateBounds" />
          </mxGeometry>
        </mxCell>
        <mxCell id="4bi4kWeXioRVAayadUFc-178" style="shape=tableRow;horizontal=0;startSize=0;swimlaneHead=0;swimlaneBody=0;top=0;left=0;bottom=0;right=0;collapsible=0;dropTarget=0;fillColor=none;points=[[0,0.5],[1,0.5]];portConstraint=eastwest;" vertex="1" parent="4bi4kWeXioRVAayadUFc-172">
          <mxGeometry y="50" width="351.5" height="20" as="geometry" />
        </mxCell>
        <mxCell id="4bi4kWeXioRVAayadUFc-179" value="+0x0" style="shape=partialRectangle;html=1;whiteSpace=wrap;connectable=0;fillColor=none;top=0;left=0;bottom=0;right=0;overflow=hidden;pointerEvents=1;align=center;" vertex="1" parent="4bi4kWeXioRVAayadUFc-178">
          <mxGeometry width="48" height="20" as="geometry">
            <mxRectangle width="48" height="20" as="alternateBounds" />
          </mxGeometry>
        </mxCell>
        <mxCell id="4bi4kWeXioRVAayadUFc-180" value="PrimitiveType" style="shape=partialRectangle;html=1;whiteSpace=wrap;connectable=0;fillColor=none;top=0;left=0;bottom=0;right=0;align=left;spacingLeft=6;overflow=hidden;" vertex="1" parent="4bi4kWeXioRVAayadUFc-178">
          <mxGeometry x="48" width="102" height="20" as="geometry">
            <mxRectangle width="102" height="20" as="alternateBounds" />
          </mxGeometry>
        </mxCell>
        <mxCell id="4bi4kWeXioRVAayadUFc-181" value="UPrimitiveType" style="shape=partialRectangle;html=1;whiteSpace=wrap;connectable=0;fillColor=none;top=0;left=0;bottom=0;right=0;align=left;spacingLeft=6;overflow=hidden;" vertex="1" parent="4bi4kWeXioRVAayadUFc-178">
          <mxGeometry x="150" width="110" height="20" as="geometry">
            <mxRectangle width="110" height="20" as="alternateBounds" />
          </mxGeometry>
        </mxCell>
        <mxCell id="4bi4kWeXioRVAayadUFc-182" value="1" style="shape=partialRectangle;html=1;whiteSpace=wrap;connectable=0;fillColor=none;top=0;left=0;bottom=0;right=0;align=left;spacingLeft=6;overflow=hidden;" vertex="1" parent="4bi4kWeXioRVAayadUFc-178">
          <mxGeometry x="260" width="92" height="20" as="geometry">
            <mxRectangle width="92" height="20" as="alternateBounds" />
          </mxGeometry>
        </mxCell>
        <mxCell id="4bi4kWeXioRVAayadUFc-183" style="shape=tableRow;horizontal=0;startSize=0;swimlaneHead=0;swimlaneBody=0;top=0;left=0;bottom=0;right=0;collapsible=0;dropTarget=0;fillColor=none;points=[[0,0.5],[1,0.5]];portConstraint=eastwest;" vertex="1" parent="4bi4kWeXioRVAayadUFc-172">
          <mxGeometry y="70" width="351.5" height="20" as="geometry" />
        </mxCell>
        <mxCell id="4bi4kWeXioRVAayadUFc-184" value="+0x1" style="shape=partialRectangle;html=1;whiteSpace=wrap;connectable=0;fillColor=none;top=0;left=0;bottom=0;right=0;overflow=hidden;pointerEvents=1;align=center;" vertex="1" parent="4bi4kWeXioRVAayadUFc-183">
          <mxGeometry width="48" height="20" as="geometry">
            <mxRectangle width="48" height="20" as="alternateBounds" />
          </mxGeometry>
        </mxCell>
        <mxCell id="4bi4kWeXioRVAayadUFc-185" value="IBOFormat" style="shape=partialRectangle;html=1;whiteSpace=wrap;connectable=0;fillColor=none;top=0;left=0;bottom=0;right=0;align=left;spacingLeft=6;overflow=hidden;" vertex="1" parent="4bi4kWeXioRVAayadUFc-183">
          <mxGeometry x="48" width="102" height="20" as="geometry">
            <mxRectangle width="102" height="20" as="alternateBounds" />
          </mxGeometry>
        </mxCell>
        <mxCell id="4bi4kWeXioRVAayadUFc-186" value="UDataType" style="shape=partialRectangle;html=1;whiteSpace=wrap;connectable=0;fillColor=none;top=0;left=0;bottom=0;right=0;align=left;spacingLeft=6;overflow=hidden;" vertex="1" parent="4bi4kWeXioRVAayadUFc-183">
          <mxGeometry x="150" width="110" height="20" as="geometry">
            <mxRectangle width="110" height="20" as="alternateBounds" />
          </mxGeometry>
        </mxCell>
        <mxCell id="4bi4kWeXioRVAayadUFc-187" value="1" style="shape=partialRectangle;html=1;whiteSpace=wrap;connectable=0;fillColor=none;top=0;left=0;bottom=0;right=0;align=left;spacingLeft=6;overflow=hidden;" vertex="1" parent="4bi4kWeXioRVAayadUFc-183">
          <mxGeometry x="260" width="92" height="20" as="geometry">
            <mxRectangle width="92" height="20" as="alternateBounds" />
          </mxGeometry>
        </mxCell>
        <mxCell id="4bi4kWeXioRVAayadUFc-188" style="shape=tableRow;horizontal=0;startSize=0;swimlaneHead=0;swimlaneBody=0;top=0;left=0;bottom=0;right=0;collapsible=0;dropTarget=0;fillColor=none;points=[[0,0.5],[1,0.5]];portConstraint=eastwest;" vertex="1" parent="4bi4kWeXioRVAayadUFc-172">
          <mxGeometry y="90" width="351.5" height="20" as="geometry" />
        </mxCell>
        <mxCell id="4bi4kWeXioRVAayadUFc-189" value="+0x2" style="shape=partialRectangle;html=1;whiteSpace=wrap;connectable=0;fillColor=none;top=0;left=0;bottom=0;right=0;overflow=hidden;pointerEvents=1;align=center;" vertex="1" parent="4bi4kWeXioRVAayadUFc-188">
          <mxGeometry width="48" height="20" as="geometry">
            <mxRectangle width="48" height="20" as="alternateBounds" />
          </mxGeometry>
        </mxCell>
        <mxCell id="4bi4kWeXioRVAayadUFc-190" value="VtxAttrCount" style="shape=partialRectangle;html=1;whiteSpace=wrap;connectable=0;fillColor=none;top=0;left=0;bottom=0;right=0;align=left;spacingLeft=6;overflow=hidden;" vertex="1" parent="4bi4kWeXioRVAayadUFc-188">
          <mxGeometry x="48" width="102" height="20" as="geometry">
            <mxRectangle width="102" height="20" as="alternateBounds" />
          </mxGeometry>
        </mxCell>
        <mxCell id="4bi4kWeXioRVAayadUFc-191" value="int" style="shape=partialRectangle;html=1;whiteSpace=wrap;connectable=0;fillColor=none;top=0;left=0;bottom=0;right=0;align=left;spacingLeft=6;overflow=hidden;" vertex="1" parent="4bi4kWeXioRVAayadUFc-188">
          <mxGeometry x="150" width="110" height="20" as="geometry">
            <mxRectangle width="110" height="20" as="alternateBounds" />
          </mxGeometry>
        </mxCell>
        <mxCell id="4bi4kWeXioRVAayadUFc-192" value="1" style="shape=partialRectangle;html=1;whiteSpace=wrap;connectable=0;fillColor=none;top=0;left=0;bottom=0;right=0;align=left;spacingLeft=6;overflow=hidden;" vertex="1" parent="4bi4kWeXioRVAayadUFc-188">
          <mxGeometry x="260" width="92" height="20" as="geometry">
            <mxRectangle width="92" height="20" as="alternateBounds" />
          </mxGeometry>
        </mxCell>
        <mxCell id="4bi4kWeXioRVAayadUFc-193" style="shape=tableRow;horizontal=0;startSize=0;swimlaneHead=0;swimlaneBody=0;top=0;left=0;bottom=0;right=0;collapsible=0;dropTarget=0;fillColor=none;points=[[0,0.5],[1,0.5]];portConstraint=eastwest;" vertex="1" parent="4bi4kWeXioRVAayadUFc-172">
          <mxGeometry y="110" width="351.5" height="20" as="geometry" />
        </mxCell>
        <mxCell id="4bi4kWeXioRVAayadUFc-194" value="+0x3" style="shape=partialRectangle;html=1;whiteSpace=wrap;connectable=0;fillColor=none;top=0;left=0;bottom=0;right=0;overflow=hidden;pointerEvents=1;align=center;" vertex="1" parent="4bi4kWeXioRVAayadUFc-193">
          <mxGeometry width="48" height="20" as="geometry">
            <mxRectangle width="48" height="20" as="alternateBounds" />
          </mxGeometry>
        </mxCell>
        <mxCell id="4bi4kWeXioRVAayadUFc-195" value="VertexAttributes" style="shape=partialRectangle;html=1;whiteSpace=wrap;connectable=0;fillColor=none;top=0;left=0;bottom=0;right=0;align=left;spacingLeft=6;overflow=hidden;" vertex="1" parent="4bi4kWeXioRVAayadUFc-193">
          <mxGeometry x="48" width="102" height="20" as="geometry">
            <mxRectangle width="102" height="20" as="alternateBounds" />
          </mxGeometry>
        </mxCell>
        <mxCell id="4bi4kWeXioRVAayadUFc-196" value="VertexAttribute[]" style="shape=partialRectangle;html=1;whiteSpace=wrap;connectable=0;fillColor=none;top=0;left=0;bottom=0;right=0;align=left;spacingLeft=6;overflow=hidden;" vertex="1" parent="4bi4kWeXioRVAayadUFc-193">
          <mxGeometry x="150" width="110" height="20" as="geometry">
            <mxRectangle width="110" height="20" as="alternateBounds" />
          </mxGeometry>
        </mxCell>
        <mxCell id="4bi4kWeXioRVAayadUFc-197" value="VtxAttrCount*" style="shape=partialRectangle;html=1;whiteSpace=wrap;connectable=0;fillColor=none;top=0;left=0;bottom=0;right=0;align=left;spacingLeft=6;overflow=hidden;" vertex="1" parent="4bi4kWeXioRVAayadUFc-193">
          <mxGeometry x="260" width="92" height="20" as="geometry">
            <mxRectangle width="92" height="20" as="alternateBounds" />
          </mxGeometry>
        </mxCell>
        <mxCell id="4bi4kWeXioRVAayadUFc-198" style="shape=tableRow;horizontal=0;startSize=0;swimlaneHead=0;swimlaneBody=0;top=0;left=0;bottom=0;right=0;collapsible=0;dropTarget=0;fillColor=none;points=[[0,0.5],[1,0.5]];portConstraint=eastwest;" vertex="1" parent="4bi4kWeXioRVAayadUFc-172">
          <mxGeometry y="130" width="351.5" height="20" as="geometry" />
        </mxCell>
        <mxCell id="4bi4kWeXioRVAayadUFc-199" value="++0x3" style="shape=partialRectangle;html=1;whiteSpace=wrap;connectable=0;fillColor=none;top=0;left=0;bottom=0;right=0;overflow=hidden;pointerEvents=1;align=center;" vertex="1" parent="4bi4kWeXioRVAayadUFc-198">
          <mxGeometry width="48" height="20" as="geometry">
            <mxRectangle width="48" height="20" as="alternateBounds" />
          </mxGeometry>
        </mxCell>
        <mxCell id="4bi4kWeXioRVAayadUFc-200" value="IBOSize" style="shape=partialRectangle;html=1;whiteSpace=wrap;connectable=0;fillColor=none;top=0;left=0;bottom=0;right=0;align=left;spacingLeft=6;overflow=hidden;" vertex="1" parent="4bi4kWeXioRVAayadUFc-198">
          <mxGeometry x="48" width="102" height="20" as="geometry">
            <mxRectangle width="102" height="20" as="alternateBounds" />
          </mxGeometry>
        </mxCell>
        <mxCell id="4bi4kWeXioRVAayadUFc-201" value="int" style="shape=partialRectangle;html=1;whiteSpace=wrap;connectable=0;fillColor=none;top=0;left=0;bottom=0;right=0;align=left;spacingLeft=6;overflow=hidden;" vertex="1" parent="4bi4kWeXioRVAayadUFc-198">
          <mxGeometry x="150" width="110" height="20" as="geometry">
            <mxRectangle width="110" height="20" as="alternateBounds" />
          </mxGeometry>
        </mxCell>
        <mxCell id="4bi4kWeXioRVAayadUFc-202" value="4" style="shape=partialRectangle;html=1;whiteSpace=wrap;connectable=0;fillColor=none;top=0;left=0;bottom=0;right=0;align=left;spacingLeft=6;overflow=hidden;" vertex="1" parent="4bi4kWeXioRVAayadUFc-198">
          <mxGeometry x="260" width="92" height="20" as="geometry">
            <mxRectangle width="92" height="20" as="alternateBounds" />
          </mxGeometry>
        </mxCell>
        <mxCell id="4bi4kWeXioRVAayadUFc-203" style="shape=tableRow;horizontal=0;startSize=0;swimlaneHead=0;swimlaneBody=0;top=0;left=0;bottom=0;right=0;collapsible=0;dropTarget=0;fillColor=none;points=[[0,0.5],[1,0.5]];portConstraint=eastwest;" vertex="1" parent="4bi4kWeXioRVAayadUFc-172">
          <mxGeometry y="150" width="351.5" height="20" as="geometry" />
        </mxCell>
        <mxCell id="4bi4kWeXioRVAayadUFc-204" value="++0x7" style="shape=partialRectangle;html=1;whiteSpace=wrap;connectable=0;fillColor=none;top=0;left=0;bottom=0;right=0;overflow=hidden;pointerEvents=1;align=center;" vertex="1" parent="4bi4kWeXioRVAayadUFc-203">
          <mxGeometry width="48" height="20" as="geometry">
            <mxRectangle width="48" height="20" as="alternateBounds" />
          </mxGeometry>
        </mxCell>
        <mxCell id="4bi4kWeXioRVAayadUFc-205" value="IBO" style="shape=partialRectangle;html=1;whiteSpace=wrap;connectable=0;fillColor=none;top=0;left=0;bottom=0;right=0;align=left;spacingLeft=6;overflow=hidden;" vertex="1" parent="4bi4kWeXioRVAayadUFc-203">
          <mxGeometry x="48" width="102" height="20" as="geometry">
            <mxRectangle width="102" height="20" as="alternateBounds" />
          </mxGeometry>
        </mxCell>
        <mxCell id="4bi4kWeXioRVAayadUFc-206" value="byte[]" style="shape=partialRectangle;html=1;whiteSpace=wrap;connectable=0;fillColor=none;top=0;left=0;bottom=0;right=0;align=left;spacingLeft=6;overflow=hidden;" vertex="1" parent="4bi4kWeXioRVAayadUFc-203">
          <mxGeometry x="150" width="110" height="20" as="geometry">
            <mxRectangle width="110" height="20" as="alternateBounds" />
          </mxGeometry>
        </mxCell>
        <mxCell id="4bi4kWeXioRVAayadUFc-207" value="IBOSize" style="shape=partialRectangle;html=1;whiteSpace=wrap;connectable=0;fillColor=none;top=0;left=0;bottom=0;right=0;align=left;spacingLeft=6;overflow=hidden;" vertex="1" parent="4bi4kWeXioRVAayadUFc-203">
          <mxGeometry x="260" width="92" height="20" as="geometry">
            <mxRectangle width="92" height="20" as="alternateBounds" />
          </mxGeometry>
        </mxCell>
        <mxCell id="4bi4kWeXioRVAayadUFc-208" style="shape=tableRow;horizontal=0;startSize=0;swimlaneHead=0;swimlaneBody=0;top=0;left=0;bottom=0;right=0;collapsible=0;dropTarget=0;fillColor=none;points=[[0,0.5],[1,0.5]];portConstraint=eastwest;" vertex="1" parent="4bi4kWeXioRVAayadUFc-172">
          <mxGeometry y="170" width="351.5" height="20" as="geometry" />
        </mxCell>
        <mxCell id="4bi4kWeXioRVAayadUFc-209" value="+++0x7" style="shape=partialRectangle;html=1;whiteSpace=wrap;connectable=0;fillColor=none;top=0;left=0;bottom=0;right=0;overflow=hidden;pointerEvents=1;align=center;" vertex="1" parent="4bi4kWeXioRVAayadUFc-208">
          <mxGeometry width="48" height="20" as="geometry">
            <mxRectangle width="48" height="20" as="alternateBounds" />
          </mxGeometry>
        </mxCell>
        <mxCell id="4bi4kWeXioRVAayadUFc-210" value="VBOSize" style="shape=partialRectangle;html=1;whiteSpace=wrap;connectable=0;fillColor=none;top=0;left=0;bottom=0;right=0;align=left;spacingLeft=6;overflow=hidden;" vertex="1" parent="4bi4kWeXioRVAayadUFc-208">
          <mxGeometry x="48" width="102" height="20" as="geometry">
            <mxRectangle width="102" height="20" as="alternateBounds" />
          </mxGeometry>
        </mxCell>
        <mxCell id="4bi4kWeXioRVAayadUFc-211" value="int" style="shape=partialRectangle;html=1;whiteSpace=wrap;connectable=0;fillColor=none;top=0;left=0;bottom=0;right=0;align=left;spacingLeft=6;overflow=hidden;" vertex="1" parent="4bi4kWeXioRVAayadUFc-208">
          <mxGeometry x="150" width="110" height="20" as="geometry">
            <mxRectangle width="110" height="20" as="alternateBounds" />
          </mxGeometry>
        </mxCell>
        <mxCell id="4bi4kWeXioRVAayadUFc-212" value="4" style="shape=partialRectangle;html=1;whiteSpace=wrap;connectable=0;fillColor=none;top=0;left=0;bottom=0;right=0;align=left;spacingLeft=6;overflow=hidden;" vertex="1" parent="4bi4kWeXioRVAayadUFc-208">
          <mxGeometry x="260" width="92" height="20" as="geometry">
            <mxRectangle width="92" height="20" as="alternateBounds" />
          </mxGeometry>
        </mxCell>
        <mxCell id="4bi4kWeXioRVAayadUFc-213" style="shape=tableRow;horizontal=0;startSize=0;swimlaneHead=0;swimlaneBody=0;top=0;left=0;bottom=0;right=0;collapsible=0;dropTarget=0;fillColor=none;points=[[0,0.5],[1,0.5]];portConstraint=eastwest;" vertex="1" parent="4bi4kWeXioRVAayadUFc-172">
          <mxGeometry y="190" width="351.5" height="20" as="geometry" />
        </mxCell>
        <mxCell id="4bi4kWeXioRVAayadUFc-214" value="+++0xb" style="shape=partialRectangle;html=1;whiteSpace=wrap;connectable=0;fillColor=none;top=0;left=0;bottom=0;right=0;overflow=hidden;pointerEvents=1;align=center;" vertex="1" parent="4bi4kWeXioRVAayadUFc-213">
          <mxGeometry width="48" height="20" as="geometry">
            <mxRectangle width="48" height="20" as="alternateBounds" />
          </mxGeometry>
        </mxCell>
        <mxCell id="4bi4kWeXioRVAayadUFc-215" value="VBO" style="shape=partialRectangle;html=1;whiteSpace=wrap;connectable=0;fillColor=none;top=0;left=0;bottom=0;right=0;align=left;spacingLeft=6;overflow=hidden;" vertex="1" parent="4bi4kWeXioRVAayadUFc-213">
          <mxGeometry x="48" width="102" height="20" as="geometry">
            <mxRectangle width="102" height="20" as="alternateBounds" />
          </mxGeometry>
        </mxCell>
        <mxCell id="4bi4kWeXioRVAayadUFc-216" value="byte[]" style="shape=partialRectangle;html=1;whiteSpace=wrap;connectable=0;fillColor=none;top=0;left=0;bottom=0;right=0;align=left;spacingLeft=6;overflow=hidden;" vertex="1" parent="4bi4kWeXioRVAayadUFc-213">
          <mxGeometry x="150" width="110" height="20" as="geometry">
            <mxRectangle width="110" height="20" as="alternateBounds" />
          </mxGeometry>
        </mxCell>
        <mxCell id="4bi4kWeXioRVAayadUFc-217" value="VBOSize" style="shape=partialRectangle;html=1;whiteSpace=wrap;connectable=0;fillColor=none;top=0;left=0;bottom=0;right=0;align=left;spacingLeft=6;overflow=hidden;" vertex="1" parent="4bi4kWeXioRVAayadUFc-213">
          <mxGeometry x="260" width="92" height="20" as="geometry">
            <mxRectangle width="92" height="20" as="alternateBounds" />
          </mxGeometry>
        </mxCell>
        <mxCell id="4bi4kWeXioRVAayadUFc-219" value="GfxMesh.VertexAttribute" style="shape=table;startSize=30;container=1;collapsible=0;childLayout=tableLayout;fixedRows=1;rowLines=0;fontStyle=0;strokeColor=default;" vertex="1" parent="WIyWlLk6GJQsqaUBKTNV-1">
          <mxGeometry x="166" y="1958" width="252" height="130" as="geometry" />
        </mxCell>
        <mxCell id="4bi4kWeXioRVAayadUFc-220" value="" style="shape=tableRow;horizontal=0;startSize=0;swimlaneHead=0;swimlaneBody=0;top=0;left=0;bottom=0;right=0;collapsible=0;dropTarget=0;fillColor=none;points=[[0,0.5],[1,0.5]];portConstraint=eastwest;" vertex="1" parent="4bi4kWeXioRVAayadUFc-219">
          <mxGeometry y="30" width="252" height="20" as="geometry" />
        </mxCell>
        <mxCell id="4bi4kWeXioRVAayadUFc-221" value="0x0" style="shape=partialRectangle;html=1;whiteSpace=wrap;connectable=0;fillColor=none;top=0;left=0;bottom=0;right=0;overflow=hidden;pointerEvents=1;align=center;" vertex="1" parent="4bi4kWeXioRVAayadUFc-220">
          <mxGeometry width="40" height="20" as="geometry">
            <mxRectangle width="40" height="20" as="alternateBounds" />
          </mxGeometry>
        </mxCell>
        <mxCell id="4bi4kWeXioRVAayadUFc-222" value="ShaderAttrName" style="shape=partialRectangle;html=1;whiteSpace=wrap;connectable=0;fillColor=none;top=0;left=0;bottom=0;right=0;align=left;spacingLeft=6;overflow=hidden;" vertex="1" parent="4bi4kWeXioRVAayadUFc-220">
          <mxGeometry x="40" width="105" height="20" as="geometry">
            <mxRectangle width="105" height="20" as="alternateBounds" />
          </mxGeometry>
        </mxCell>
        <mxCell id="4bi4kWeXioRVAayadUFc-223" value="String" style="shape=partialRectangle;html=1;whiteSpace=wrap;connectable=0;fillColor=none;top=0;left=0;bottom=0;right=0;align=left;spacingLeft=6;overflow=hidden;" vertex="1" parent="4bi4kWeXioRVAayadUFc-220">
          <mxGeometry x="145" width="74" height="20" as="geometry">
            <mxRectangle width="74" height="20" as="alternateBounds" />
          </mxGeometry>
        </mxCell>
        <mxCell id="4bi4kWeXioRVAayadUFc-224" value="-" style="shape=partialRectangle;html=1;whiteSpace=wrap;connectable=0;fillColor=none;top=0;left=0;bottom=0;right=0;align=left;spacingLeft=6;overflow=hidden;" vertex="1" parent="4bi4kWeXioRVAayadUFc-220">
          <mxGeometry x="219" width="33" height="20" as="geometry">
            <mxRectangle width="33" height="20" as="alternateBounds" />
          </mxGeometry>
        </mxCell>
        <mxCell id="4bi4kWeXioRVAayadUFc-225" style="shape=tableRow;horizontal=0;startSize=0;swimlaneHead=0;swimlaneBody=0;top=0;left=0;bottom=0;right=0;collapsible=0;dropTarget=0;fillColor=none;points=[[0,0.5],[1,0.5]];portConstraint=eastwest;" vertex="1" parent="4bi4kWeXioRVAayadUFc-219">
          <mxGeometry y="50" width="252" height="20" as="geometry" />
        </mxCell>
        <mxCell id="4bi4kWeXioRVAayadUFc-226" value="+0x0" style="shape=partialRectangle;html=1;whiteSpace=wrap;connectable=0;fillColor=none;top=0;left=0;bottom=0;right=0;overflow=hidden;pointerEvents=1;align=center;" vertex="1" parent="4bi4kWeXioRVAayadUFc-225">
          <mxGeometry width="40" height="20" as="geometry">
            <mxRectangle width="40" height="20" as="alternateBounds" />
          </mxGeometry>
        </mxCell>
        <mxCell id="4bi4kWeXioRVAayadUFc-227" value="Offset" style="shape=partialRectangle;html=1;whiteSpace=wrap;connectable=0;fillColor=none;top=0;left=0;bottom=0;right=0;align=left;spacingLeft=6;overflow=hidden;" vertex="1" parent="4bi4kWeXioRVAayadUFc-225">
          <mxGeometry x="40" width="105" height="20" as="geometry">
            <mxRectangle width="105" height="20" as="alternateBounds" />
          </mxGeometry>
        </mxCell>
        <mxCell id="4bi4kWeXioRVAayadUFc-228" value="int" style="shape=partialRectangle;html=1;whiteSpace=wrap;connectable=0;fillColor=none;top=0;left=0;bottom=0;right=0;align=left;spacingLeft=6;overflow=hidden;" vertex="1" parent="4bi4kWeXioRVAayadUFc-225">
          <mxGeometry x="145" width="74" height="20" as="geometry">
            <mxRectangle width="74" height="20" as="alternateBounds" />
          </mxGeometry>
        </mxCell>
        <mxCell id="4bi4kWeXioRVAayadUFc-229" value="2" style="shape=partialRectangle;html=1;whiteSpace=wrap;connectable=0;fillColor=none;top=0;left=0;bottom=0;right=0;align=left;spacingLeft=6;overflow=hidden;" vertex="1" parent="4bi4kWeXioRVAayadUFc-225">
          <mxGeometry x="219" width="33" height="20" as="geometry">
            <mxRectangle width="33" height="20" as="alternateBounds" />
          </mxGeometry>
        </mxCell>
        <mxCell id="4bi4kWeXioRVAayadUFc-230" style="shape=tableRow;horizontal=0;startSize=0;swimlaneHead=0;swimlaneBody=0;top=0;left=0;bottom=0;right=0;collapsible=0;dropTarget=0;fillColor=none;points=[[0,0.5],[1,0.5]];portConstraint=eastwest;" vertex="1" parent="4bi4kWeXioRVAayadUFc-219">
          <mxGeometry y="70" width="252" height="20" as="geometry" />
        </mxCell>
        <mxCell id="4bi4kWeXioRVAayadUFc-231" value="+0x2" style="shape=partialRectangle;html=1;whiteSpace=wrap;connectable=0;fillColor=none;top=0;left=0;bottom=0;right=0;overflow=hidden;pointerEvents=1;align=center;" vertex="1" parent="4bi4kWeXioRVAayadUFc-230">
          <mxGeometry width="40" height="20" as="geometry">
            <mxRectangle width="40" height="20" as="alternateBounds" />
          </mxGeometry>
        </mxCell>
        <mxCell id="4bi4kWeXioRVAayadUFc-232" value="ElementCount" style="shape=partialRectangle;html=1;whiteSpace=wrap;connectable=0;fillColor=none;top=0;left=0;bottom=0;right=0;align=left;spacingLeft=6;overflow=hidden;" vertex="1" parent="4bi4kWeXioRVAayadUFc-230">
          <mxGeometry x="40" width="105" height="20" as="geometry">
            <mxRectangle width="105" height="20" as="alternateBounds" />
          </mxGeometry>
        </mxCell>
        <mxCell id="4bi4kWeXioRVAayadUFc-233" value="int" style="shape=partialRectangle;html=1;whiteSpace=wrap;connectable=0;fillColor=none;top=0;left=0;bottom=0;right=0;align=left;spacingLeft=6;overflow=hidden;" vertex="1" parent="4bi4kWeXioRVAayadUFc-230">
          <mxGeometry x="145" width="74" height="20" as="geometry">
            <mxRectangle width="74" height="20" as="alternateBounds" />
          </mxGeometry>
        </mxCell>
        <mxCell id="4bi4kWeXioRVAayadUFc-234" value="1" style="shape=partialRectangle;html=1;whiteSpace=wrap;connectable=0;fillColor=none;top=0;left=0;bottom=0;right=0;align=left;spacingLeft=6;overflow=hidden;" vertex="1" parent="4bi4kWeXioRVAayadUFc-230">
          <mxGeometry x="219" width="33" height="20" as="geometry">
            <mxRectangle width="33" height="20" as="alternateBounds" />
          </mxGeometry>
        </mxCell>
        <mxCell id="4bi4kWeXioRVAayadUFc-235" style="shape=tableRow;horizontal=0;startSize=0;swimlaneHead=0;swimlaneBody=0;top=0;left=0;bottom=0;right=0;collapsible=0;dropTarget=0;fillColor=none;points=[[0,0.5],[1,0.5]];portConstraint=eastwest;" vertex="1" parent="4bi4kWeXioRVAayadUFc-219">
          <mxGeometry y="90" width="252" height="20" as="geometry" />
        </mxCell>
        <mxCell id="4bi4kWeXioRVAayadUFc-236" value="+0x3" style="shape=partialRectangle;html=1;whiteSpace=wrap;connectable=0;fillColor=none;top=0;left=0;bottom=0;right=0;overflow=hidden;pointerEvents=1;align=center;" vertex="1" parent="4bi4kWeXioRVAayadUFc-235">
          <mxGeometry width="40" height="20" as="geometry">
            <mxRectangle width="40" height="20" as="alternateBounds" />
          </mxGeometry>
        </mxCell>
        <mxCell id="4bi4kWeXioRVAayadUFc-237" value="Format" style="shape=partialRectangle;html=1;whiteSpace=wrap;connectable=0;fillColor=none;top=0;left=0;bottom=0;right=0;align=left;spacingLeft=6;overflow=hidden;" vertex="1" parent="4bi4kWeXioRVAayadUFc-235">
          <mxGeometry x="40" width="105" height="20" as="geometry">
            <mxRectangle width="105" height="20" as="alternateBounds" />
          </mxGeometry>
        </mxCell>
        <mxCell id="4bi4kWeXioRVAayadUFc-238" value="UDataType" style="shape=partialRectangle;html=1;whiteSpace=wrap;connectable=0;fillColor=none;top=0;left=0;bottom=0;right=0;align=left;spacingLeft=6;overflow=hidden;" vertex="1" parent="4bi4kWeXioRVAayadUFc-235">
          <mxGeometry x="145" width="74" height="20" as="geometry">
            <mxRectangle width="74" height="20" as="alternateBounds" />
          </mxGeometry>
        </mxCell>
        <mxCell id="4bi4kWeXioRVAayadUFc-239" value="1" style="shape=partialRectangle;html=1;whiteSpace=wrap;connectable=0;fillColor=none;top=0;left=0;bottom=0;right=0;align=left;spacingLeft=6;overflow=hidden;" vertex="1" parent="4bi4kWeXioRVAayadUFc-235">
          <mxGeometry x="219" width="33" height="20" as="geometry">
            <mxRectangle width="33" height="20" as="alternateBounds" />
          </mxGeometry>
        </mxCell>
        <mxCell id="4bi4kWeXioRVAayadUFc-240" style="shape=tableRow;horizontal=0;startSize=0;swimlaneHead=0;swimlaneBody=0;top=0;left=0;bottom=0;right=0;collapsible=0;dropTarget=0;fillColor=none;points=[[0,0.5],[1,0.5]];portConstraint=eastwest;" vertex="1" parent="4bi4kWeXioRVAayadUFc-219">
          <mxGeometry y="110" width="252" height="20" as="geometry" />
        </mxCell>
        <mxCell id="4bi4kWeXioRVAayadUFc-241" value="+0x4" style="shape=partialRectangle;html=1;whiteSpace=wrap;connectable=0;fillColor=none;top=0;left=0;bottom=0;right=0;overflow=hidden;pointerEvents=1;align=center;" vertex="1" parent="4bi4kWeXioRVAayadUFc-240">
          <mxGeometry width="40" height="20" as="geometry">
            <mxRectangle width="40" height="20" as="alternateBounds" />
          </mxGeometry>
        </mxCell>
        <mxCell id="4bi4kWeXioRVAayadUFc-242" value="Normalized" style="shape=partialRectangle;html=1;whiteSpace=wrap;connectable=0;fillColor=none;top=0;left=0;bottom=0;right=0;align=left;spacingLeft=6;overflow=hidden;" vertex="1" parent="4bi4kWeXioRVAayadUFc-240">
          <mxGeometry x="40" width="105" height="20" as="geometry">
            <mxRectangle width="105" height="20" as="alternateBounds" />
          </mxGeometry>
        </mxCell>
        <mxCell id="4bi4kWeXioRVAayadUFc-243" value="boolean" style="shape=partialRectangle;html=1;whiteSpace=wrap;connectable=0;fillColor=none;top=0;left=0;bottom=0;right=0;align=left;spacingLeft=6;overflow=hidden;" vertex="1" parent="4bi4kWeXioRVAayadUFc-240">
          <mxGeometry x="145" width="74" height="20" as="geometry">
            <mxRectangle width="74" height="20" as="alternateBounds" />
          </mxGeometry>
        </mxCell>
        <mxCell id="4bi4kWeXioRVAayadUFc-244" value="1" style="shape=partialRectangle;html=1;whiteSpace=wrap;connectable=0;fillColor=none;top=0;left=0;bottom=0;right=0;align=left;spacingLeft=6;overflow=hidden;" vertex="1" parent="4bi4kWeXioRVAayadUFc-240">
          <mxGeometry x="219" width="33" height="20" as="geometry">
            <mxRectangle width="33" height="20" as="alternateBounds" />
          </mxGeometry>
        </mxCell>
        <mxCell id="4bi4kWeXioRVAayadUFc-245" style="edgeStyle=orthogonalEdgeStyle;rounded=0;orthogonalLoop=1;jettySize=auto;html=1;exitX=1;exitY=0.5;exitDx=0;exitDy=0;entryX=0.5;entryY=0;entryDx=0;entryDy=0;fontSize=12;" edge="1" parent="WIyWlLk6GJQsqaUBKTNV-1" source="4bi4kWeXioRVAayadUFc-193" target="4bi4kWeXioRVAayadUFc-219">
          <mxGeometry relative="1" as="geometry">
            <Array as="points">
              <mxPoint x="472" y="1840" />
              <mxPoint x="472" y="1940" />
              <mxPoint x="292" y="1940" />
            </Array>
          </mxGeometry>
        </mxCell>
        <mxCell id="4bi4kWeXioRVAayadUFc-246" value="GfxShader [SHDR]" style="text;strokeColor=none;fillColor=none;html=1;fontSize=24;fontStyle=1;verticalAlign=middle;align=center;" vertex="1" parent="WIyWlLk6GJQsqaUBKTNV-1">
          <mxGeometry x="177" y="2500" width="230" height="40" as="geometry" />
        </mxCell>
        <mxCell id="4bi4kWeXioRVAayadUFc-247" value="GfxShader" style="shape=table;startSize=30;container=1;collapsible=0;childLayout=tableLayout;fixedRows=1;rowLines=0;fontStyle=0;strokeColor=default;" vertex="1" parent="WIyWlLk6GJQsqaUBKTNV-1">
          <mxGeometry x="158" y="2550" width="268" height="110" as="geometry" />
        </mxCell>
        <mxCell id="4bi4kWeXioRVAayadUFc-248" value="" style="shape=tableRow;horizontal=0;startSize=0;swimlaneHead=0;swimlaneBody=0;top=0;left=0;bottom=0;right=0;collapsible=0;dropTarget=0;fillColor=none;points=[[0,0.5],[1,0.5]];portConstraint=eastwest;" vertex="1" parent="4bi4kWeXioRVAayadUFc-247">
          <mxGeometry y="30" width="268" height="20" as="geometry" />
        </mxCell>
        <mxCell id="4bi4kWeXioRVAayadUFc-249" value="0x0" style="shape=partialRectangle;html=1;whiteSpace=wrap;connectable=0;fillColor=none;top=0;left=0;bottom=0;right=0;overflow=hidden;pointerEvents=1;align=center;" vertex="1" parent="4bi4kWeXioRVAayadUFc-248">
          <mxGeometry width="43" height="20" as="geometry">
            <mxRectangle width="43" height="20" as="alternateBounds" />
          </mxGeometry>
        </mxCell>
        <mxCell id="4bi4kWeXioRVAayadUFc-250" value="Type" style="shape=partialRectangle;html=1;whiteSpace=wrap;connectable=0;fillColor=none;top=0;left=0;bottom=0;right=0;align=left;spacingLeft=6;overflow=hidden;" vertex="1" parent="4bi4kWeXioRVAayadUFc-248">
          <mxGeometry x="43" width="67" height="20" as="geometry">
            <mxRectangle width="67" height="20" as="alternateBounds" />
          </mxGeometry>
        </mxCell>
        <mxCell id="4bi4kWeXioRVAayadUFc-251" value="UShaderType" style="shape=partialRectangle;html=1;whiteSpace=wrap;connectable=0;fillColor=none;top=0;left=0;bottom=0;right=0;align=left;spacingLeft=6;overflow=hidden;" vertex="1" parent="4bi4kWeXioRVAayadUFc-248">
          <mxGeometry x="110" width="90" height="20" as="geometry">
            <mxRectangle width="90" height="20" as="alternateBounds" />
          </mxGeometry>
        </mxCell>
        <mxCell id="4bi4kWeXioRVAayadUFc-252" value="-" style="shape=partialRectangle;html=1;whiteSpace=wrap;connectable=0;fillColor=none;top=0;left=0;bottom=0;right=0;align=left;spacingLeft=6;overflow=hidden;" vertex="1" parent="4bi4kWeXioRVAayadUFc-248">
          <mxGeometry x="200" width="68" height="20" as="geometry">
            <mxRectangle width="68" height="20" as="alternateBounds" />
          </mxGeometry>
        </mxCell>
        <mxCell id="4bi4kWeXioRVAayadUFc-253" style="shape=tableRow;horizontal=0;startSize=0;swimlaneHead=0;swimlaneBody=0;top=0;left=0;bottom=0;right=0;collapsible=0;dropTarget=0;fillColor=none;points=[[0,0.5],[1,0.5]];portConstraint=eastwest;" vertex="1" parent="4bi4kWeXioRVAayadUFc-247">
          <mxGeometry y="50" width="268" height="20" as="geometry" />
        </mxCell>
        <mxCell id="4bi4kWeXioRVAayadUFc-254" value="0x1" style="shape=partialRectangle;html=1;whiteSpace=wrap;connectable=0;fillColor=none;top=0;left=0;bottom=0;right=0;overflow=hidden;pointerEvents=1;align=center;" vertex="1" parent="4bi4kWeXioRVAayadUFc-253">
          <mxGeometry width="43" height="20" as="geometry">
            <mxRectangle width="43" height="20" as="alternateBounds" />
          </mxGeometry>
        </mxCell>
        <mxCell id="4bi4kWeXioRVAayadUFc-255" value="Name" style="shape=partialRectangle;html=1;whiteSpace=wrap;connectable=0;fillColor=none;top=0;left=0;bottom=0;right=0;align=left;spacingLeft=6;overflow=hidden;" vertex="1" parent="4bi4kWeXioRVAayadUFc-253">
          <mxGeometry x="43" width="67" height="20" as="geometry">
            <mxRectangle width="67" height="20" as="alternateBounds" />
          </mxGeometry>
        </mxCell>
        <mxCell id="4bi4kWeXioRVAayadUFc-256" value="String" style="shape=partialRectangle;html=1;whiteSpace=wrap;connectable=0;fillColor=none;top=0;left=0;bottom=0;right=0;align=left;spacingLeft=6;overflow=hidden;" vertex="1" parent="4bi4kWeXioRVAayadUFc-253">
          <mxGeometry x="110" width="90" height="20" as="geometry">
            <mxRectangle width="90" height="20" as="alternateBounds" />
          </mxGeometry>
        </mxCell>
        <mxCell id="4bi4kWeXioRVAayadUFc-257" value="1" style="shape=partialRectangle;html=1;whiteSpace=wrap;connectable=0;fillColor=none;top=0;left=0;bottom=0;right=0;align=left;spacingLeft=6;overflow=hidden;" vertex="1" parent="4bi4kWeXioRVAayadUFc-253">
          <mxGeometry x="200" width="68" height="20" as="geometry">
            <mxRectangle width="68" height="20" as="alternateBounds" />
          </mxGeometry>
        </mxCell>
        <mxCell id="4bi4kWeXioRVAayadUFc-258" style="shape=tableRow;horizontal=0;startSize=0;swimlaneHead=0;swimlaneBody=0;top=0;left=0;bottom=0;right=0;collapsible=0;dropTarget=0;fillColor=none;points=[[0,0.5],[1,0.5]];portConstraint=eastwest;" vertex="1" parent="4bi4kWeXioRVAayadUFc-247">
          <mxGeometry y="70" width="268" height="20" as="geometry" />
        </mxCell>
        <mxCell id="4bi4kWeXioRVAayadUFc-259" value="+0x2" style="shape=partialRectangle;html=1;whiteSpace=wrap;connectable=0;fillColor=none;top=0;left=0;bottom=0;right=0;overflow=hidden;pointerEvents=1;align=center;" vertex="1" parent="4bi4kWeXioRVAayadUFc-258">
          <mxGeometry width="43" height="20" as="geometry">
            <mxRectangle width="43" height="20" as="alternateBounds" />
          </mxGeometry>
        </mxCell>
        <mxCell id="4bi4kWeXioRVAayadUFc-260" value="CodeSize" style="shape=partialRectangle;html=1;whiteSpace=wrap;connectable=0;fillColor=none;top=0;left=0;bottom=0;right=0;align=left;spacingLeft=6;overflow=hidden;" vertex="1" parent="4bi4kWeXioRVAayadUFc-258">
          <mxGeometry x="43" width="67" height="20" as="geometry">
            <mxRectangle width="67" height="20" as="alternateBounds" />
          </mxGeometry>
        </mxCell>
        <mxCell id="4bi4kWeXioRVAayadUFc-261" value="int" style="shape=partialRectangle;html=1;whiteSpace=wrap;connectable=0;fillColor=none;top=0;left=0;bottom=0;right=0;align=left;spacingLeft=6;overflow=hidden;" vertex="1" parent="4bi4kWeXioRVAayadUFc-258">
          <mxGeometry x="110" width="90" height="20" as="geometry">
            <mxRectangle width="90" height="20" as="alternateBounds" />
          </mxGeometry>
        </mxCell>
        <mxCell id="4bi4kWeXioRVAayadUFc-262" value="4" style="shape=partialRectangle;html=1;whiteSpace=wrap;connectable=0;fillColor=none;top=0;left=0;bottom=0;right=0;align=left;spacingLeft=6;overflow=hidden;" vertex="1" parent="4bi4kWeXioRVAayadUFc-258">
          <mxGeometry x="200" width="68" height="20" as="geometry">
            <mxRectangle width="68" height="20" as="alternateBounds" />
          </mxGeometry>
        </mxCell>
        <mxCell id="4bi4kWeXioRVAayadUFc-263" style="shape=tableRow;horizontal=0;startSize=0;swimlaneHead=0;swimlaneBody=0;top=0;left=0;bottom=0;right=0;collapsible=0;dropTarget=0;fillColor=none;points=[[0,0.5],[1,0.5]];portConstraint=eastwest;" vertex="1" parent="4bi4kWeXioRVAayadUFc-247">
          <mxGeometry y="90" width="268" height="20" as="geometry" />
        </mxCell>
        <mxCell id="4bi4kWeXioRVAayadUFc-264" value="+0x6" style="shape=partialRectangle;html=1;whiteSpace=wrap;connectable=0;fillColor=none;top=0;left=0;bottom=0;right=0;overflow=hidden;pointerEvents=1;align=center;" vertex="1" parent="4bi4kWeXioRVAayadUFc-263">
          <mxGeometry width="43" height="20" as="geometry">
            <mxRectangle width="43" height="20" as="alternateBounds" />
          </mxGeometry>
        </mxCell>
        <mxCell id="4bi4kWeXioRVAayadUFc-265" value="Code" style="shape=partialRectangle;html=1;whiteSpace=wrap;connectable=0;fillColor=none;top=0;left=0;bottom=0;right=0;align=left;spacingLeft=6;overflow=hidden;" vertex="1" parent="4bi4kWeXioRVAayadUFc-263">
          <mxGeometry x="43" width="67" height="20" as="geometry">
            <mxRectangle width="67" height="20" as="alternateBounds" />
          </mxGeometry>
        </mxCell>
        <mxCell id="4bi4kWeXioRVAayadUFc-266" value="String" style="shape=partialRectangle;html=1;whiteSpace=wrap;connectable=0;fillColor=none;top=0;left=0;bottom=0;right=0;align=left;spacingLeft=6;overflow=hidden;" vertex="1" parent="4bi4kWeXioRVAayadUFc-263">
          <mxGeometry x="110" width="90" height="20" as="geometry">
            <mxRectangle width="90" height="20" as="alternateBounds" />
          </mxGeometry>
        </mxCell>
        <mxCell id="4bi4kWeXioRVAayadUFc-267" value="CodeSize" style="shape=partialRectangle;html=1;whiteSpace=wrap;connectable=0;fillColor=none;top=0;left=0;bottom=0;right=0;align=left;spacingLeft=6;overflow=hidden;" vertex="1" parent="4bi4kWeXioRVAayadUFc-263">
          <mxGeometry x="200" width="68" height="20" as="geometry">
            <mxRectangle width="68" height="20" as="alternateBounds" />
          </mxGeometry>
        </mxCell>
        <mxCell id="4bi4kWeXioRVAayadUFc-273" value="GfxProgram [SPRG]" style="text;strokeColor=none;fillColor=none;html=1;fontSize=24;fontStyle=1;verticalAlign=middle;align=center;" vertex="1" parent="WIyWlLk6GJQsqaUBKTNV-1">
          <mxGeometry x="176" y="2690" width="230" height="40" as="geometry" />
        </mxCell>
        <mxCell id="4bi4kWeXioRVAayadUFc-274" value="GfxProgram" style="shape=table;startSize=30;container=1;collapsible=0;childLayout=tableLayout;fixedRows=1;rowLines=0;fontStyle=0;strokeColor=default;" vertex="1" parent="WIyWlLk6GJQsqaUBKTNV-1">
          <mxGeometry x="158" y="2740" width="268" height="90" as="geometry" />
        </mxCell>
        <mxCell id="4bi4kWeXioRVAayadUFc-275" value="" style="shape=tableRow;horizontal=0;startSize=0;swimlaneHead=0;swimlaneBody=0;top=0;left=0;bottom=0;right=0;collapsible=0;dropTarget=0;fillColor=none;points=[[0,0.5],[1,0.5]];portConstraint=eastwest;" vertex="1" parent="4bi4kWeXioRVAayadUFc-274">
          <mxGeometry y="30" width="268" height="20" as="geometry" />
        </mxCell>
        <mxCell id="4bi4kWeXioRVAayadUFc-276" value="0x0" style="shape=partialRectangle;html=1;whiteSpace=wrap;connectable=0;fillColor=none;top=0;left=0;bottom=0;right=0;overflow=hidden;pointerEvents=1;align=center;" vertex="1" parent="4bi4kWeXioRVAayadUFc-275">
          <mxGeometry width="43" height="20" as="geometry">
            <mxRectangle width="43" height="20" as="alternateBounds" />
          </mxGeometry>
        </mxCell>
        <mxCell id="4bi4kWeXioRVAayadUFc-277" value="Name" style="shape=partialRectangle;html=1;whiteSpace=wrap;connectable=0;fillColor=none;top=0;left=0;bottom=0;right=0;align=left;spacingLeft=6;overflow=hidden;" vertex="1" parent="4bi4kWeXioRVAayadUFc-275">
          <mxGeometry x="43" width="121" height="20" as="geometry">
            <mxRectangle width="121" height="20" as="alternateBounds" />
          </mxGeometry>
        </mxCell>
        <mxCell id="4bi4kWeXioRVAayadUFc-278" value="String" style="shape=partialRectangle;html=1;whiteSpace=wrap;connectable=0;fillColor=none;top=0;left=0;bottom=0;right=0;align=left;spacingLeft=6;overflow=hidden;" vertex="1" parent="4bi4kWeXioRVAayadUFc-275">
          <mxGeometry x="164" width="60" height="20" as="geometry">
            <mxRectangle width="60" height="20" as="alternateBounds" />
          </mxGeometry>
        </mxCell>
        <mxCell id="4bi4kWeXioRVAayadUFc-279" value="-" style="shape=partialRectangle;html=1;whiteSpace=wrap;connectable=0;fillColor=none;top=0;left=0;bottom=0;right=0;align=left;spacingLeft=6;overflow=hidden;" vertex="1" parent="4bi4kWeXioRVAayadUFc-275">
          <mxGeometry x="224" width="44" height="20" as="geometry">
            <mxRectangle width="44" height="20" as="alternateBounds" />
          </mxGeometry>
        </mxCell>
        <mxCell id="4bi4kWeXioRVAayadUFc-280" style="shape=tableRow;horizontal=0;startSize=0;swimlaneHead=0;swimlaneBody=0;top=0;left=0;bottom=0;right=0;collapsible=0;dropTarget=0;fillColor=none;points=[[0,0.5],[1,0.5]];portConstraint=eastwest;" vertex="1" parent="4bi4kWeXioRVAayadUFc-274">
          <mxGeometry y="50" width="268" height="20" as="geometry" />
        </mxCell>
        <mxCell id="4bi4kWeXioRVAayadUFc-281" value="+0x0" style="shape=partialRectangle;html=1;whiteSpace=wrap;connectable=0;fillColor=none;top=0;left=0;bottom=0;right=0;overflow=hidden;pointerEvents=1;align=center;" vertex="1" parent="4bi4kWeXioRVAayadUFc-280">
          <mxGeometry width="43" height="20" as="geometry">
            <mxRectangle width="43" height="20" as="alternateBounds" />
          </mxGeometry>
        </mxCell>
        <mxCell id="4bi4kWeXioRVAayadUFc-282" value="VtxShaderName" style="shape=partialRectangle;html=1;whiteSpace=wrap;connectable=0;fillColor=none;top=0;left=0;bottom=0;right=0;align=left;spacingLeft=6;overflow=hidden;" vertex="1" parent="4bi4kWeXioRVAayadUFc-280">
          <mxGeometry x="43" width="121" height="20" as="geometry">
            <mxRectangle width="121" height="20" as="alternateBounds" />
          </mxGeometry>
        </mxCell>
        <mxCell id="4bi4kWeXioRVAayadUFc-283" value="String" style="shape=partialRectangle;html=1;whiteSpace=wrap;connectable=0;fillColor=none;top=0;left=0;bottom=0;right=0;align=left;spacingLeft=6;overflow=hidden;" vertex="1" parent="4bi4kWeXioRVAayadUFc-280">
          <mxGeometry x="164" width="60" height="20" as="geometry">
            <mxRectangle width="60" height="20" as="alternateBounds" />
          </mxGeometry>
        </mxCell>
        <mxCell id="4bi4kWeXioRVAayadUFc-284" value="-" style="shape=partialRectangle;html=1;whiteSpace=wrap;connectable=0;fillColor=none;top=0;left=0;bottom=0;right=0;align=left;spacingLeft=6;overflow=hidden;" vertex="1" parent="4bi4kWeXioRVAayadUFc-280">
          <mxGeometry x="224" width="44" height="20" as="geometry">
            <mxRectangle width="44" height="20" as="alternateBounds" />
          </mxGeometry>
        </mxCell>
        <mxCell id="4bi4kWeXioRVAayadUFc-285" style="shape=tableRow;horizontal=0;startSize=0;swimlaneHead=0;swimlaneBody=0;top=0;left=0;bottom=0;right=0;collapsible=0;dropTarget=0;fillColor=none;points=[[0,0.5],[1,0.5]];portConstraint=eastwest;" vertex="1" parent="4bi4kWeXioRVAayadUFc-274">
          <mxGeometry y="70" width="268" height="20" as="geometry" />
        </mxCell>
        <mxCell id="4bi4kWeXioRVAayadUFc-286" value="++0x0" style="shape=partialRectangle;html=1;whiteSpace=wrap;connectable=0;fillColor=none;top=0;left=0;bottom=0;right=0;overflow=hidden;pointerEvents=1;align=center;" vertex="1" parent="4bi4kWeXioRVAayadUFc-285">
          <mxGeometry width="43" height="20" as="geometry">
            <mxRectangle width="43" height="20" as="alternateBounds" />
          </mxGeometry>
        </mxCell>
        <mxCell id="4bi4kWeXioRVAayadUFc-287" value="FragShaderName" style="shape=partialRectangle;html=1;whiteSpace=wrap;connectable=0;fillColor=none;top=0;left=0;bottom=0;right=0;align=left;spacingLeft=6;overflow=hidden;" vertex="1" parent="4bi4kWeXioRVAayadUFc-285">
          <mxGeometry x="43" width="121" height="20" as="geometry">
            <mxRectangle width="121" height="20" as="alternateBounds" />
          </mxGeometry>
        </mxCell>
        <mxCell id="4bi4kWeXioRVAayadUFc-288" value="int" style="shape=partialRectangle;html=1;whiteSpace=wrap;connectable=0;fillColor=none;top=0;left=0;bottom=0;right=0;align=left;spacingLeft=6;overflow=hidden;" vertex="1" parent="4bi4kWeXioRVAayadUFc-285">
          <mxGeometry x="164" width="60" height="20" as="geometry">
            <mxRectangle width="60" height="20" as="alternateBounds" />
          </mxGeometry>
        </mxCell>
        <mxCell id="4bi4kWeXioRVAayadUFc-289" value="-" style="shape=partialRectangle;html=1;whiteSpace=wrap;connectable=0;fillColor=none;top=0;left=0;bottom=0;right=0;align=left;spacingLeft=6;overflow=hidden;" vertex="1" parent="4bi4kWeXioRVAayadUFc-285">
          <mxGeometry x="224" width="44" height="20" as="geometry">
            <mxRectangle width="44" height="20" as="alternateBounds" />
          </mxGeometry>
        </mxCell>
        <mxCell id="4bi4kWeXioRVAayadUFc-295" value="GfxMaterial [MATL]" style="text;strokeColor=none;fillColor=none;html=1;fontSize=24;fontStyle=1;verticalAlign=middle;align=center;" vertex="1" parent="WIyWlLk6GJQsqaUBKTNV-1">
          <mxGeometry x="176" y="3320" width="230" height="40" as="geometry" />
        </mxCell>
        <mxCell id="4bi4kWeXioRVAayadUFc-297" value="GfxMaterial" style="shape=table;startSize=30;container=1;collapsible=0;childLayout=tableLayout;fixedRows=1;rowLines=0;fontStyle=0;strokeColor=default;" vertex="1" parent="WIyWlLk6GJQsqaUBKTNV-1">
          <mxGeometry x="57" y="3370" width="470" height="150" as="geometry" />
        </mxCell>
        <mxCell id="4bi4kWeXioRVAayadUFc-298" value="" style="shape=tableRow;horizontal=0;startSize=0;swimlaneHead=0;swimlaneBody=0;top=0;left=0;bottom=0;right=0;collapsible=0;dropTarget=0;fillColor=none;points=[[0,0.5],[1,0.5]];portConstraint=eastwest;" vertex="1" parent="4bi4kWeXioRVAayadUFc-297">
          <mxGeometry y="30" width="470" height="20" as="geometry" />
        </mxCell>
        <mxCell id="4bi4kWeXioRVAayadUFc-299" value="0x0" style="shape=partialRectangle;html=1;whiteSpace=wrap;connectable=0;fillColor=none;top=0;left=0;bottom=0;right=0;overflow=hidden;pointerEvents=1;align=center;" vertex="1" parent="4bi4kWeXioRVAayadUFc-298">
          <mxGeometry width="76" height="20" as="geometry">
            <mxRectangle width="76" height="20" as="alternateBounds" />
          </mxGeometry>
        </mxCell>
        <mxCell id="4bi4kWeXioRVAayadUFc-300" value="Name" style="shape=partialRectangle;html=1;whiteSpace=wrap;connectable=0;fillColor=none;top=0;left=0;bottom=0;right=0;align=left;spacingLeft=6;overflow=hidden;" vertex="1" parent="4bi4kWeXioRVAayadUFc-298">
          <mxGeometry x="76" width="144" height="20" as="geometry">
            <mxRectangle width="144" height="20" as="alternateBounds" />
          </mxGeometry>
        </mxCell>
        <mxCell id="4bi4kWeXioRVAayadUFc-301" value="String" style="shape=partialRectangle;html=1;whiteSpace=wrap;connectable=0;fillColor=none;top=0;left=0;bottom=0;right=0;align=left;spacingLeft=6;overflow=hidden;" vertex="1" parent="4bi4kWeXioRVAayadUFc-298">
          <mxGeometry x="220" width="110" height="20" as="geometry">
            <mxRectangle width="110" height="20" as="alternateBounds" />
          </mxGeometry>
        </mxCell>
        <mxCell id="4bi4kWeXioRVAayadUFc-302" value="-" style="shape=partialRectangle;html=1;whiteSpace=wrap;connectable=0;fillColor=none;top=0;left=0;bottom=0;right=0;align=left;spacingLeft=6;overflow=hidden;" vertex="1" parent="4bi4kWeXioRVAayadUFc-298">
          <mxGeometry x="330" width="140" height="20" as="geometry">
            <mxRectangle width="140" height="20" as="alternateBounds" />
          </mxGeometry>
        </mxCell>
        <mxCell id="4bi4kWeXioRVAayadUFc-303" style="shape=tableRow;horizontal=0;startSize=0;swimlaneHead=0;swimlaneBody=0;top=0;left=0;bottom=0;right=0;collapsible=0;dropTarget=0;fillColor=none;points=[[0,0.5],[1,0.5]];portConstraint=eastwest;" vertex="1" parent="4bi4kWeXioRVAayadUFc-297">
          <mxGeometry y="50" width="470" height="20" as="geometry" />
        </mxCell>
        <mxCell id="4bi4kWeXioRVAayadUFc-304" value="+0x0" style="shape=partialRectangle;html=1;whiteSpace=wrap;connectable=0;fillColor=none;top=0;left=0;bottom=0;right=0;overflow=hidden;pointerEvents=1;align=center;" vertex="1" parent="4bi4kWeXioRVAayadUFc-303">
          <mxGeometry width="76" height="20" as="geometry">
            <mxRectangle width="76" height="20" as="alternateBounds" />
          </mxGeometry>
        </mxCell>
        <mxCell id="4bi4kWeXioRVAayadUFc-305" value="ShaderProgramName" style="shape=partialRectangle;html=1;whiteSpace=wrap;connectable=0;fillColor=none;top=0;left=0;bottom=0;right=0;align=left;spacingLeft=6;overflow=hidden;" vertex="1" parent="4bi4kWeXioRVAayadUFc-303">
          <mxGeometry x="76" width="144" height="20" as="geometry">
            <mxRectangle width="144" height="20" as="alternateBounds" />
          </mxGeometry>
        </mxCell>
        <mxCell id="4bi4kWeXioRVAayadUFc-306" value="String" style="shape=partialRectangle;html=1;whiteSpace=wrap;connectable=0;fillColor=none;top=0;left=0;bottom=0;right=0;align=left;spacingLeft=6;overflow=hidden;" vertex="1" parent="4bi4kWeXioRVAayadUFc-303">
          <mxGeometry x="220" width="110" height="20" as="geometry">
            <mxRectangle width="110" height="20" as="alternateBounds" />
          </mxGeometry>
        </mxCell>
        <mxCell id="4bi4kWeXioRVAayadUFc-307" value="1" style="shape=partialRectangle;html=1;whiteSpace=wrap;connectable=0;fillColor=none;top=0;left=0;bottom=0;right=0;align=left;spacingLeft=6;overflow=hidden;" vertex="1" parent="4bi4kWeXioRVAayadUFc-303">
          <mxGeometry x="330" width="140" height="20" as="geometry">
            <mxRectangle width="140" height="20" as="alternateBounds" />
          </mxGeometry>
        </mxCell>
        <mxCell id="4bi4kWeXioRVAayadUFc-308" style="shape=tableRow;horizontal=0;startSize=0;swimlaneHead=0;swimlaneBody=0;top=0;left=0;bottom=0;right=0;collapsible=0;dropTarget=0;fillColor=none;points=[[0,0.5],[1,0.5]];portConstraint=eastwest;" vertex="1" parent="4bi4kWeXioRVAayadUFc-297">
          <mxGeometry y="70" width="470" height="20" as="geometry" />
        </mxCell>
        <mxCell id="4bi4kWeXioRVAayadUFc-309" value="++0x0" style="shape=partialRectangle;html=1;whiteSpace=wrap;connectable=0;fillColor=none;top=0;left=0;bottom=0;right=0;overflow=hidden;pointerEvents=1;align=center;" vertex="1" parent="4bi4kWeXioRVAayadUFc-308">
          <mxGeometry width="76" height="20" as="geometry">
            <mxRectangle width="76" height="20" as="alternateBounds" />
          </mxGeometry>
        </mxCell>
        <mxCell id="4bi4kWeXioRVAayadUFc-310" value="DrawLayer" style="shape=partialRectangle;html=1;whiteSpace=wrap;connectable=0;fillColor=none;top=0;left=0;bottom=0;right=0;align=left;spacingLeft=6;overflow=hidden;" vertex="1" parent="4bi4kWeXioRVAayadUFc-308">
          <mxGeometry x="76" width="144" height="20" as="geometry">
            <mxRectangle width="144" height="20" as="alternateBounds" />
          </mxGeometry>
        </mxCell>
        <mxCell id="4bi4kWeXioRVAayadUFc-311" value="DrawLayer" style="shape=partialRectangle;html=1;whiteSpace=wrap;connectable=0;fillColor=none;top=0;left=0;bottom=0;right=0;align=left;spacingLeft=6;overflow=hidden;" vertex="1" parent="4bi4kWeXioRVAayadUFc-308">
          <mxGeometry x="220" width="110" height="20" as="geometry">
            <mxRectangle width="110" height="20" as="alternateBounds" />
          </mxGeometry>
        </mxCell>
        <mxCell id="4bi4kWeXioRVAayadUFc-312" value="3" style="shape=partialRectangle;html=1;whiteSpace=wrap;connectable=0;fillColor=none;top=0;left=0;bottom=0;right=0;align=left;spacingLeft=6;overflow=hidden;" vertex="1" parent="4bi4kWeXioRVAayadUFc-308">
          <mxGeometry x="330" width="140" height="20" as="geometry">
            <mxRectangle width="140" height="20" as="alternateBounds" />
          </mxGeometry>
        </mxCell>
        <mxCell id="4bi4kWeXioRVAayadUFc-313" style="shape=tableRow;horizontal=0;startSize=0;swimlaneHead=0;swimlaneBody=0;top=0;left=0;bottom=0;right=0;collapsible=0;dropTarget=0;fillColor=none;points=[[0,0.5],[1,0.5]];portConstraint=eastwest;" vertex="1" parent="4bi4kWeXioRVAayadUFc-297">
          <mxGeometry y="90" width="470" height="20" as="geometry" />
        </mxCell>
        <mxCell id="4bi4kWeXioRVAayadUFc-314" value="++0x3" style="shape=partialRectangle;html=1;whiteSpace=wrap;connectable=0;fillColor=none;top=0;left=0;bottom=0;right=0;overflow=hidden;pointerEvents=1;align=center;" vertex="1" parent="4bi4kWeXioRVAayadUFc-313">
          <mxGeometry width="76" height="20" as="geometry">
            <mxRectangle width="76" height="20" as="alternateBounds" />
          </mxGeometry>
        </mxCell>
        <mxCell id="4bi4kWeXioRVAayadUFc-315" value="TextureMapperCount" style="shape=partialRectangle;html=1;whiteSpace=wrap;connectable=0;fillColor=none;top=0;left=0;bottom=0;right=0;align=left;spacingLeft=6;overflow=hidden;" vertex="1" parent="4bi4kWeXioRVAayadUFc-313">
          <mxGeometry x="76" width="144" height="20" as="geometry">
            <mxRectangle width="144" height="20" as="alternateBounds" />
          </mxGeometry>
        </mxCell>
        <mxCell id="4bi4kWeXioRVAayadUFc-316" value="int" style="shape=partialRectangle;html=1;whiteSpace=wrap;connectable=0;fillColor=none;top=0;left=0;bottom=0;right=0;align=left;spacingLeft=6;overflow=hidden;" vertex="1" parent="4bi4kWeXioRVAayadUFc-313">
          <mxGeometry x="220" width="110" height="20" as="geometry">
            <mxRectangle width="110" height="20" as="alternateBounds" />
          </mxGeometry>
        </mxCell>
        <mxCell id="4bi4kWeXioRVAayadUFc-317" value="1" style="shape=partialRectangle;html=1;whiteSpace=wrap;connectable=0;fillColor=none;top=0;left=0;bottom=0;right=0;align=left;spacingLeft=6;overflow=hidden;" vertex="1" parent="4bi4kWeXioRVAayadUFc-313">
          <mxGeometry x="330" width="140" height="20" as="geometry">
            <mxRectangle width="140" height="20" as="alternateBounds" />
          </mxGeometry>
        </mxCell>
        <mxCell id="4bi4kWeXioRVAayadUFc-318" style="shape=tableRow;horizontal=0;startSize=0;swimlaneHead=0;swimlaneBody=0;top=0;left=0;bottom=0;right=0;collapsible=0;dropTarget=0;fillColor=none;points=[[0,0.5],[1,0.5]];portConstraint=eastwest;" vertex="1" parent="4bi4kWeXioRVAayadUFc-297">
          <mxGeometry y="110" width="470" height="20" as="geometry" />
        </mxCell>
        <mxCell id="4bi4kWeXioRVAayadUFc-319" value="++0x4" style="shape=partialRectangle;html=1;whiteSpace=wrap;connectable=0;fillColor=none;top=0;left=0;bottom=0;right=0;overflow=hidden;pointerEvents=1;align=center;" vertex="1" parent="4bi4kWeXioRVAayadUFc-318">
          <mxGeometry width="76" height="20" as="geometry">
            <mxRectangle width="76" height="20" as="alternateBounds" />
          </mxGeometry>
        </mxCell>
        <mxCell id="4bi4kWeXioRVAayadUFc-320" value="TextureMappers" style="shape=partialRectangle;html=1;whiteSpace=wrap;connectable=0;fillColor=none;top=0;left=0;bottom=0;right=0;align=left;spacingLeft=6;overflow=hidden;" vertex="1" parent="4bi4kWeXioRVAayadUFc-318">
          <mxGeometry x="76" width="144" height="20" as="geometry">
            <mxRectangle width="144" height="20" as="alternateBounds" />
          </mxGeometry>
        </mxCell>
        <mxCell id="4bi4kWeXioRVAayadUFc-321" value="TextureMapper" style="shape=partialRectangle;html=1;whiteSpace=wrap;connectable=0;fillColor=none;top=0;left=0;bottom=0;right=0;align=left;spacingLeft=6;overflow=hidden;" vertex="1" parent="4bi4kWeXioRVAayadUFc-318">
          <mxGeometry x="220" width="110" height="20" as="geometry">
            <mxRectangle width="110" height="20" as="alternateBounds" />
          </mxGeometry>
        </mxCell>
        <mxCell id="4bi4kWeXioRVAayadUFc-322" value="TextureMapperCount*" style="shape=partialRectangle;html=1;whiteSpace=wrap;connectable=0;fillColor=none;top=0;left=0;bottom=0;right=0;align=left;spacingLeft=6;overflow=hidden;" vertex="1" parent="4bi4kWeXioRVAayadUFc-318">
          <mxGeometry x="330" width="140" height="20" as="geometry">
            <mxRectangle width="140" height="20" as="alternateBounds" />
          </mxGeometry>
        </mxCell>
        <mxCell id="4bi4kWeXioRVAayadUFc-323" style="shape=tableRow;horizontal=0;startSize=0;swimlaneHead=0;swimlaneBody=0;top=0;left=0;bottom=0;right=0;collapsible=0;dropTarget=0;fillColor=none;points=[[0,0.5],[1,0.5]];portConstraint=eastwest;" vertex="1" parent="4bi4kWeXioRVAayadUFc-297">
          <mxGeometry y="130" width="470" height="20" as="geometry" />
        </mxCell>
        <mxCell id="4bi4kWeXioRVAayadUFc-324" value="+++0x4" style="shape=partialRectangle;html=1;whiteSpace=wrap;connectable=0;fillColor=none;top=0;left=0;bottom=0;right=0;overflow=hidden;pointerEvents=1;align=center;" vertex="1" parent="4bi4kWeXioRVAayadUFc-323">
          <mxGeometry width="76" height="20" as="geometry">
            <mxRectangle width="76" height="20" as="alternateBounds" />
          </mxGeometry>
        </mxCell>
        <mxCell id="4bi4kWeXioRVAayadUFc-325" value="ShaderParams" style="shape=partialRectangle;html=1;whiteSpace=wrap;connectable=0;fillColor=none;top=0;left=0;bottom=0;right=0;align=left;spacingLeft=6;overflow=hidden;" vertex="1" parent="4bi4kWeXioRVAayadUFc-323">
          <mxGeometry x="76" width="144" height="20" as="geometry">
            <mxRectangle width="144" height="20" as="alternateBounds" />
          </mxGeometry>
        </mxCell>
        <mxCell id="4bi4kWeXioRVAayadUFc-326" value="ShaderParams" style="shape=partialRectangle;html=1;whiteSpace=wrap;connectable=0;fillColor=none;top=0;left=0;bottom=0;right=0;align=left;spacingLeft=6;overflow=hidden;" vertex="1" parent="4bi4kWeXioRVAayadUFc-323">
          <mxGeometry x="220" width="110" height="20" as="geometry">
            <mxRectangle width="110" height="20" as="alternateBounds" />
          </mxGeometry>
        </mxCell>
        <mxCell id="4bi4kWeXioRVAayadUFc-327" style="shape=partialRectangle;html=1;whiteSpace=wrap;connectable=0;fillColor=none;top=0;left=0;bottom=0;right=0;align=left;spacingLeft=6;overflow=hidden;" vertex="1" parent="4bi4kWeXioRVAayadUFc-323">
          <mxGeometry x="330" width="140" height="20" as="geometry">
            <mxRectangle width="140" height="20" as="alternateBounds" />
          </mxGeometry>
        </mxCell>
        <mxCell id="4bi4kWeXioRVAayadUFc-328" value="GfxMaterial.DrawLayer" style="shape=table;startSize=30;container=1;collapsible=0;childLayout=tableLayout;fixedRows=1;rowLines=0;fontStyle=0;strokeColor=default;" vertex="1" parent="WIyWlLk6GJQsqaUBKTNV-1">
          <mxGeometry x="57" y="3550" width="317" height="70" as="geometry" />
        </mxCell>
        <mxCell id="4bi4kWeXioRVAayadUFc-329" value="" style="shape=tableRow;horizontal=0;startSize=0;swimlaneHead=0;swimlaneBody=0;top=0;left=0;bottom=0;right=0;collapsible=0;dropTarget=0;fillColor=none;points=[[0,0.5],[1,0.5]];portConstraint=eastwest;" vertex="1" parent="4bi4kWeXioRVAayadUFc-328">
          <mxGeometry y="30" width="317" height="20" as="geometry" />
        </mxCell>
        <mxCell id="4bi4kWeXioRVAayadUFc-330" value="0x0" style="shape=partialRectangle;html=1;whiteSpace=wrap;connectable=0;fillColor=none;top=0;left=0;bottom=0;right=0;overflow=hidden;pointerEvents=1;align=center;" vertex="1" parent="4bi4kWeXioRVAayadUFc-329">
          <mxGeometry width="37" height="20" as="geometry">
            <mxRectangle width="37" height="20" as="alternateBounds" />
          </mxGeometry>
        </mxCell>
        <mxCell id="4bi4kWeXioRVAayadUFc-331" value="ShadingMethod" style="shape=partialRectangle;html=1;whiteSpace=wrap;connectable=0;fillColor=none;top=0;left=0;bottom=0;right=0;align=left;spacingLeft=6;overflow=hidden;" vertex="1" parent="4bi4kWeXioRVAayadUFc-329">
          <mxGeometry x="37" width="130" height="20" as="geometry">
            <mxRectangle width="130" height="20" as="alternateBounds" />
          </mxGeometry>
        </mxCell>
        <mxCell id="4bi4kWeXioRVAayadUFc-332" value="UShadingMethod" style="shape=partialRectangle;html=1;whiteSpace=wrap;connectable=0;fillColor=none;top=0;left=0;bottom=0;right=0;align=left;spacingLeft=6;overflow=hidden;" vertex="1" parent="4bi4kWeXioRVAayadUFc-329">
          <mxGeometry x="167" width="120" height="20" as="geometry">
            <mxRectangle width="120" height="20" as="alternateBounds" />
          </mxGeometry>
        </mxCell>
        <mxCell id="4bi4kWeXioRVAayadUFc-333" value="1" style="shape=partialRectangle;html=1;whiteSpace=wrap;connectable=0;fillColor=none;top=0;left=0;bottom=0;right=0;align=left;spacingLeft=6;overflow=hidden;" vertex="1" parent="4bi4kWeXioRVAayadUFc-329">
          <mxGeometry x="287" width="30" height="20" as="geometry">
            <mxRectangle width="30" height="20" as="alternateBounds" />
          </mxGeometry>
        </mxCell>
        <mxCell id="4bi4kWeXioRVAayadUFc-339" style="shape=tableRow;horizontal=0;startSize=0;swimlaneHead=0;swimlaneBody=0;top=0;left=0;bottom=0;right=0;collapsible=0;dropTarget=0;fillColor=none;points=[[0,0.5],[1,0.5]];portConstraint=eastwest;" vertex="1" parent="4bi4kWeXioRVAayadUFc-328">
          <mxGeometry y="50" width="317" height="20" as="geometry" />
        </mxCell>
        <mxCell id="4bi4kWeXioRVAayadUFc-340" value="0x1" style="shape=partialRectangle;html=1;whiteSpace=wrap;connectable=0;fillColor=none;top=0;left=0;bottom=0;right=0;overflow=hidden;pointerEvents=1;align=center;" vertex="1" parent="4bi4kWeXioRVAayadUFc-339">
          <mxGeometry width="37" height="20" as="geometry">
            <mxRectangle width="37" height="20" as="alternateBounds" />
          </mxGeometry>
        </mxCell>
        <mxCell id="4bi4kWeXioRVAayadUFc-341" value="Priority" style="shape=partialRectangle;html=1;whiteSpace=wrap;connectable=0;fillColor=none;top=0;left=0;bottom=0;right=0;align=left;spacingLeft=6;overflow=hidden;" vertex="1" parent="4bi4kWeXioRVAayadUFc-339">
          <mxGeometry x="37" width="130" height="20" as="geometry">
            <mxRectangle width="130" height="20" as="alternateBounds" />
          </mxGeometry>
        </mxCell>
        <mxCell id="4bi4kWeXioRVAayadUFc-342" value="int" style="shape=partialRectangle;html=1;whiteSpace=wrap;connectable=0;fillColor=none;top=0;left=0;bottom=0;right=0;align=left;spacingLeft=6;overflow=hidden;" vertex="1" parent="4bi4kWeXioRVAayadUFc-339">
          <mxGeometry x="167" width="120" height="20" as="geometry">
            <mxRectangle width="120" height="20" as="alternateBounds" />
          </mxGeometry>
        </mxCell>
        <mxCell id="4bi4kWeXioRVAayadUFc-343" value="2" style="shape=partialRectangle;html=1;whiteSpace=wrap;connectable=0;fillColor=none;top=0;left=0;bottom=0;right=0;align=left;spacingLeft=6;overflow=hidden;" vertex="1" parent="4bi4kWeXioRVAayadUFc-339">
          <mxGeometry x="287" width="30" height="20" as="geometry">
            <mxRectangle width="30" height="20" as="alternateBounds" />
          </mxGeometry>
        </mxCell>
        <mxCell id="4bi4kWeXioRVAayadUFc-344" style="edgeStyle=orthogonalEdgeStyle;rounded=0;orthogonalLoop=1;jettySize=auto;html=1;exitX=1;exitY=0.5;exitDx=0;exitDy=0;entryX=0;entryY=0.5;entryDx=0;entryDy=0;fontSize=12;" edge="1" parent="WIyWlLk6GJQsqaUBKTNV-1" source="4bi4kWeXioRVAayadUFc-308" target="4bi4kWeXioRVAayadUFc-328">
          <mxGeometry relative="1" as="geometry">
            <Array as="points">
              <mxPoint x="540" y="3450" />
              <mxPoint x="540" y="3530" />
              <mxPoint x="37" y="3530" />
              <mxPoint x="37" y="3585" />
            </Array>
          </mxGeometry>
        </mxCell>
        <mxCell id="4bi4kWeXioRVAayadUFc-345" value="GfxMaterial.TextureMapper" style="shape=table;startSize=30;container=1;collapsible=0;childLayout=tableLayout;fixedRows=1;rowLines=0;fontStyle=0;strokeColor=default;" vertex="1" parent="WIyWlLk6GJQsqaUBKTNV-1">
          <mxGeometry x="57" y="3640" width="317" height="150" as="geometry" />
        </mxCell>
        <mxCell id="4bi4kWeXioRVAayadUFc-346" value="" style="shape=tableRow;horizontal=0;startSize=0;swimlaneHead=0;swimlaneBody=0;top=0;left=0;bottom=0;right=0;collapsible=0;dropTarget=0;fillColor=none;points=[[0,0.5],[1,0.5]];portConstraint=eastwest;" vertex="1" parent="4bi4kWeXioRVAayadUFc-345">
          <mxGeometry y="30" width="317" height="20" as="geometry" />
        </mxCell>
        <mxCell id="4bi4kWeXioRVAayadUFc-347" value="0x0" style="shape=partialRectangle;html=1;whiteSpace=wrap;connectable=0;fillColor=none;top=0;left=0;bottom=0;right=0;overflow=hidden;pointerEvents=1;align=center;" vertex="1" parent="4bi4kWeXioRVAayadUFc-346">
          <mxGeometry width="37" height="20" as="geometry">
            <mxRectangle width="37" height="20" as="alternateBounds" />
          </mxGeometry>
        </mxCell>
        <mxCell id="4bi4kWeXioRVAayadUFc-348" value="TextureName" style="shape=partialRectangle;html=1;whiteSpace=wrap;connectable=0;fillColor=none;top=0;left=0;bottom=0;right=0;align=left;spacingLeft=6;overflow=hidden;" vertex="1" parent="4bi4kWeXioRVAayadUFc-346">
          <mxGeometry x="37" width="130" height="20" as="geometry">
            <mxRectangle width="130" height="20" as="alternateBounds" />
          </mxGeometry>
        </mxCell>
        <mxCell id="4bi4kWeXioRVAayadUFc-349" value="String" style="shape=partialRectangle;html=1;whiteSpace=wrap;connectable=0;fillColor=none;top=0;left=0;bottom=0;right=0;align=left;spacingLeft=6;overflow=hidden;" vertex="1" parent="4bi4kWeXioRVAayadUFc-346">
          <mxGeometry x="167" width="120" height="20" as="geometry">
            <mxRectangle width="120" height="20" as="alternateBounds" />
          </mxGeometry>
        </mxCell>
        <mxCell id="4bi4kWeXioRVAayadUFc-350" value="-" style="shape=partialRectangle;html=1;whiteSpace=wrap;connectable=0;fillColor=none;top=0;left=0;bottom=0;right=0;align=left;spacingLeft=6;overflow=hidden;" vertex="1" parent="4bi4kWeXioRVAayadUFc-346">
          <mxGeometry x="287" width="30" height="20" as="geometry">
            <mxRectangle width="30" height="20" as="alternateBounds" />
          </mxGeometry>
        </mxCell>
        <mxCell id="4bi4kWeXioRVAayadUFc-351" style="shape=tableRow;horizontal=0;startSize=0;swimlaneHead=0;swimlaneBody=0;top=0;left=0;bottom=0;right=0;collapsible=0;dropTarget=0;fillColor=none;points=[[0,0.5],[1,0.5]];portConstraint=eastwest;" vertex="1" parent="4bi4kWeXioRVAayadUFc-345">
          <mxGeometry y="50" width="317" height="20" as="geometry" />
        </mxCell>
        <mxCell id="4bi4kWeXioRVAayadUFc-352" value="+0x0" style="shape=partialRectangle;html=1;whiteSpace=wrap;connectable=0;fillColor=none;top=0;left=0;bottom=0;right=0;overflow=hidden;pointerEvents=1;align=center;" vertex="1" parent="4bi4kWeXioRVAayadUFc-351">
          <mxGeometry width="37" height="20" as="geometry">
            <mxRectangle width="37" height="20" as="alternateBounds" />
          </mxGeometry>
        </mxCell>
        <mxCell id="4bi4kWeXioRVAayadUFc-353" value="ShaderVariableName" style="shape=partialRectangle;html=1;whiteSpace=wrap;connectable=0;fillColor=none;top=0;left=0;bottom=0;right=0;align=left;spacingLeft=6;overflow=hidden;" vertex="1" parent="4bi4kWeXioRVAayadUFc-351">
          <mxGeometry x="37" width="130" height="20" as="geometry">
            <mxRectangle width="130" height="20" as="alternateBounds" />
          </mxGeometry>
        </mxCell>
        <mxCell id="4bi4kWeXioRVAayadUFc-354" value="String" style="shape=partialRectangle;html=1;whiteSpace=wrap;connectable=0;fillColor=none;top=0;left=0;bottom=0;right=0;align=left;spacingLeft=6;overflow=hidden;" vertex="1" parent="4bi4kWeXioRVAayadUFc-351">
          <mxGeometry x="167" width="120" height="20" as="geometry">
            <mxRectangle width="120" height="20" as="alternateBounds" />
          </mxGeometry>
        </mxCell>
        <mxCell id="4bi4kWeXioRVAayadUFc-355" value="-" style="shape=partialRectangle;html=1;whiteSpace=wrap;connectable=0;fillColor=none;top=0;left=0;bottom=0;right=0;align=left;spacingLeft=6;overflow=hidden;" vertex="1" parent="4bi4kWeXioRVAayadUFc-351">
          <mxGeometry x="287" width="30" height="20" as="geometry">
            <mxRectangle width="30" height="20" as="alternateBounds" />
          </mxGeometry>
        </mxCell>
        <mxCell id="4bi4kWeXioRVAayadUFc-356" style="shape=tableRow;horizontal=0;startSize=0;swimlaneHead=0;swimlaneBody=0;top=0;left=0;bottom=0;right=0;collapsible=0;dropTarget=0;fillColor=none;points=[[0,0.5],[1,0.5]];portConstraint=eastwest;" vertex="1" parent="4bi4kWeXioRVAayadUFc-345">
          <mxGeometry y="70" width="317" height="20" as="geometry" />
        </mxCell>
        <mxCell id="4bi4kWeXioRVAayadUFc-357" value="++0x0" style="shape=partialRectangle;html=1;whiteSpace=wrap;connectable=0;fillColor=none;top=0;left=0;bottom=0;right=0;overflow=hidden;pointerEvents=1;align=center;" vertex="1" parent="4bi4kWeXioRVAayadUFc-356">
          <mxGeometry width="37" height="20" as="geometry">
            <mxRectangle width="37" height="20" as="alternateBounds" />
          </mxGeometry>
        </mxCell>
        <mxCell id="4bi4kWeXioRVAayadUFc-358" value="MagFilter" style="shape=partialRectangle;html=1;whiteSpace=wrap;connectable=0;fillColor=none;top=0;left=0;bottom=0;right=0;align=left;spacingLeft=6;overflow=hidden;" vertex="1" parent="4bi4kWeXioRVAayadUFc-356">
          <mxGeometry x="37" width="130" height="20" as="geometry">
            <mxRectangle width="130" height="20" as="alternateBounds" />
          </mxGeometry>
        </mxCell>
        <mxCell id="4bi4kWeXioRVAayadUFc-359" value="UTextureMagFilter" style="shape=partialRectangle;html=1;whiteSpace=wrap;connectable=0;fillColor=none;top=0;left=0;bottom=0;right=0;align=left;spacingLeft=6;overflow=hidden;" vertex="1" parent="4bi4kWeXioRVAayadUFc-356">
          <mxGeometry x="167" width="120" height="20" as="geometry">
            <mxRectangle width="120" height="20" as="alternateBounds" />
          </mxGeometry>
        </mxCell>
        <mxCell id="4bi4kWeXioRVAayadUFc-360" value="1" style="shape=partialRectangle;html=1;whiteSpace=wrap;connectable=0;fillColor=none;top=0;left=0;bottom=0;right=0;align=left;spacingLeft=6;overflow=hidden;" vertex="1" parent="4bi4kWeXioRVAayadUFc-356">
          <mxGeometry x="287" width="30" height="20" as="geometry">
            <mxRectangle width="30" height="20" as="alternateBounds" />
          </mxGeometry>
        </mxCell>
        <mxCell id="4bi4kWeXioRVAayadUFc-361" style="shape=tableRow;horizontal=0;startSize=0;swimlaneHead=0;swimlaneBody=0;top=0;left=0;bottom=0;right=0;collapsible=0;dropTarget=0;fillColor=none;points=[[0,0.5],[1,0.5]];portConstraint=eastwest;" vertex="1" parent="4bi4kWeXioRVAayadUFc-345">
          <mxGeometry y="90" width="317" height="20" as="geometry" />
        </mxCell>
        <mxCell id="4bi4kWeXioRVAayadUFc-362" value="++0x1" style="shape=partialRectangle;html=1;whiteSpace=wrap;connectable=0;fillColor=none;top=0;left=0;bottom=0;right=0;overflow=hidden;pointerEvents=1;align=center;" vertex="1" parent="4bi4kWeXioRVAayadUFc-361">
          <mxGeometry width="37" height="20" as="geometry">
            <mxRectangle width="37" height="20" as="alternateBounds" />
          </mxGeometry>
        </mxCell>
        <mxCell id="4bi4kWeXioRVAayadUFc-363" value="MinFilter" style="shape=partialRectangle;html=1;whiteSpace=wrap;connectable=0;fillColor=none;top=0;left=0;bottom=0;right=0;align=left;spacingLeft=6;overflow=hidden;" vertex="1" parent="4bi4kWeXioRVAayadUFc-361">
          <mxGeometry x="37" width="130" height="20" as="geometry">
            <mxRectangle width="130" height="20" as="alternateBounds" />
          </mxGeometry>
        </mxCell>
        <mxCell id="4bi4kWeXioRVAayadUFc-364" value="UTextureMinFilter" style="shape=partialRectangle;html=1;whiteSpace=wrap;connectable=0;fillColor=none;top=0;left=0;bottom=0;right=0;align=left;spacingLeft=6;overflow=hidden;" vertex="1" parent="4bi4kWeXioRVAayadUFc-361">
          <mxGeometry x="167" width="120" height="20" as="geometry">
            <mxRectangle width="120" height="20" as="alternateBounds" />
          </mxGeometry>
        </mxCell>
        <mxCell id="4bi4kWeXioRVAayadUFc-365" value="1" style="shape=partialRectangle;html=1;whiteSpace=wrap;connectable=0;fillColor=none;top=0;left=0;bottom=0;right=0;align=left;spacingLeft=6;overflow=hidden;" vertex="1" parent="4bi4kWeXioRVAayadUFc-361">
          <mxGeometry x="287" width="30" height="20" as="geometry">
            <mxRectangle width="30" height="20" as="alternateBounds" />
          </mxGeometry>
        </mxCell>
        <mxCell id="4bi4kWeXioRVAayadUFc-366" style="shape=tableRow;horizontal=0;startSize=0;swimlaneHead=0;swimlaneBody=0;top=0;left=0;bottom=0;right=0;collapsible=0;dropTarget=0;fillColor=none;points=[[0,0.5],[1,0.5]];portConstraint=eastwest;" vertex="1" parent="4bi4kWeXioRVAayadUFc-345">
          <mxGeometry y="110" width="317" height="20" as="geometry" />
        </mxCell>
        <mxCell id="4bi4kWeXioRVAayadUFc-367" value="++0x2" style="shape=partialRectangle;html=1;whiteSpace=wrap;connectable=0;fillColor=none;top=0;left=0;bottom=0;right=0;overflow=hidden;pointerEvents=1;align=center;" vertex="1" parent="4bi4kWeXioRVAayadUFc-366">
          <mxGeometry width="37" height="20" as="geometry">
            <mxRectangle width="37" height="20" as="alternateBounds" />
          </mxGeometry>
        </mxCell>
        <mxCell id="4bi4kWeXioRVAayadUFc-368" value="WrapU" style="shape=partialRectangle;html=1;whiteSpace=wrap;connectable=0;fillColor=none;top=0;left=0;bottom=0;right=0;align=left;spacingLeft=6;overflow=hidden;" vertex="1" parent="4bi4kWeXioRVAayadUFc-366">
          <mxGeometry x="37" width="130" height="20" as="geometry">
            <mxRectangle width="130" height="20" as="alternateBounds" />
          </mxGeometry>
        </mxCell>
        <mxCell id="4bi4kWeXioRVAayadUFc-369" value="UTextureWrap" style="shape=partialRectangle;html=1;whiteSpace=wrap;connectable=0;fillColor=none;top=0;left=0;bottom=0;right=0;align=left;spacingLeft=6;overflow=hidden;" vertex="1" parent="4bi4kWeXioRVAayadUFc-366">
          <mxGeometry x="167" width="120" height="20" as="geometry">
            <mxRectangle width="120" height="20" as="alternateBounds" />
          </mxGeometry>
        </mxCell>
        <mxCell id="4bi4kWeXioRVAayadUFc-370" value="1" style="shape=partialRectangle;html=1;whiteSpace=wrap;connectable=0;fillColor=none;top=0;left=0;bottom=0;right=0;align=left;spacingLeft=6;overflow=hidden;" vertex="1" parent="4bi4kWeXioRVAayadUFc-366">
          <mxGeometry x="287" width="30" height="20" as="geometry">
            <mxRectangle width="30" height="20" as="alternateBounds" />
          </mxGeometry>
        </mxCell>
        <mxCell id="4bi4kWeXioRVAayadUFc-371" style="shape=tableRow;horizontal=0;startSize=0;swimlaneHead=0;swimlaneBody=0;top=0;left=0;bottom=0;right=0;collapsible=0;dropTarget=0;fillColor=none;points=[[0,0.5],[1,0.5]];portConstraint=eastwest;" vertex="1" parent="4bi4kWeXioRVAayadUFc-345">
          <mxGeometry y="130" width="317" height="20" as="geometry" />
        </mxCell>
        <mxCell id="4bi4kWeXioRVAayadUFc-372" value="++0x3" style="shape=partialRectangle;html=1;whiteSpace=wrap;connectable=0;fillColor=none;top=0;left=0;bottom=0;right=0;overflow=hidden;pointerEvents=1;align=center;" vertex="1" parent="4bi4kWeXioRVAayadUFc-371">
          <mxGeometry width="37" height="20" as="geometry">
            <mxRectangle width="37" height="20" as="alternateBounds" />
          </mxGeometry>
        </mxCell>
        <mxCell id="4bi4kWeXioRVAayadUFc-373" value="WrapV" style="shape=partialRectangle;html=1;whiteSpace=wrap;connectable=0;fillColor=none;top=0;left=0;bottom=0;right=0;align=left;spacingLeft=6;overflow=hidden;" vertex="1" parent="4bi4kWeXioRVAayadUFc-371">
          <mxGeometry x="37" width="130" height="20" as="geometry">
            <mxRectangle width="130" height="20" as="alternateBounds" />
          </mxGeometry>
        </mxCell>
        <mxCell id="4bi4kWeXioRVAayadUFc-374" value="UTextureWrap" style="shape=partialRectangle;html=1;whiteSpace=wrap;connectable=0;fillColor=none;top=0;left=0;bottom=0;right=0;align=left;spacingLeft=6;overflow=hidden;" vertex="1" parent="4bi4kWeXioRVAayadUFc-371">
          <mxGeometry x="167" width="120" height="20" as="geometry">
            <mxRectangle width="120" height="20" as="alternateBounds" />
          </mxGeometry>
        </mxCell>
        <mxCell id="4bi4kWeXioRVAayadUFc-375" value="1" style="shape=partialRectangle;html=1;whiteSpace=wrap;connectable=0;fillColor=none;top=0;left=0;bottom=0;right=0;align=left;spacingLeft=6;overflow=hidden;" vertex="1" parent="4bi4kWeXioRVAayadUFc-371">
          <mxGeometry x="287" width="30" height="20" as="geometry">
            <mxRectangle width="30" height="20" as="alternateBounds" />
          </mxGeometry>
        </mxCell>
        <mxCell id="4bi4kWeXioRVAayadUFc-376" style="edgeStyle=orthogonalEdgeStyle;rounded=0;orthogonalLoop=1;jettySize=auto;html=1;exitX=1;exitY=0.5;exitDx=0;exitDy=0;entryX=0;entryY=0.5;entryDx=0;entryDy=0;fontSize=12;" edge="1" parent="WIyWlLk6GJQsqaUBKTNV-1" source="4bi4kWeXioRVAayadUFc-318" target="4bi4kWeXioRVAayadUFc-356">
          <mxGeometry relative="1" as="geometry">
            <Array as="points">
              <mxPoint x="550" y="3490" />
              <mxPoint x="550" y="3630" />
              <mxPoint x="37" y="3630" />
              <mxPoint x="37" y="3720" />
            </Array>
          </mxGeometry>
        </mxCell>
        <mxCell id="4bi4kWeXioRVAayadUFc-377" value="GfxMaterial.ShaderParams" style="shape=table;startSize=30;container=1;collapsible=0;childLayout=tableLayout;fixedRows=1;rowLines=0;fontStyle=0;strokeColor=default;" vertex="1" parent="WIyWlLk6GJQsqaUBKTNV-1">
          <mxGeometry x="57" y="3810" width="317" height="70" as="geometry" />
        </mxCell>
        <mxCell id="4bi4kWeXioRVAayadUFc-378" value="" style="shape=tableRow;horizontal=0;startSize=0;swimlaneHead=0;swimlaneBody=0;top=0;left=0;bottom=0;right=0;collapsible=0;dropTarget=0;fillColor=none;points=[[0,0.5],[1,0.5]];portConstraint=eastwest;" vertex="1" parent="4bi4kWeXioRVAayadUFc-377">
          <mxGeometry y="30" width="317" height="20" as="geometry" />
        </mxCell>
        <mxCell id="4bi4kWeXioRVAayadUFc-379" value="0x0" style="shape=partialRectangle;html=1;whiteSpace=wrap;connectable=0;fillColor=none;top=0;left=0;bottom=0;right=0;overflow=hidden;pointerEvents=1;align=center;" vertex="1" parent="4bi4kWeXioRVAayadUFc-378">
          <mxGeometry width="37" height="20" as="geometry">
            <mxRectangle width="37" height="20" as="alternateBounds" />
          </mxGeometry>
        </mxCell>
        <mxCell id="4bi4kWeXioRVAayadUFc-380" value="Count" style="shape=partialRectangle;html=1;whiteSpace=wrap;connectable=0;fillColor=none;top=0;left=0;bottom=0;right=0;align=left;spacingLeft=6;overflow=hidden;" vertex="1" parent="4bi4kWeXioRVAayadUFc-378">
          <mxGeometry x="37" width="116" height="20" as="geometry">
            <mxRectangle width="116" height="20" as="alternateBounds" />
          </mxGeometry>
        </mxCell>
        <mxCell id="4bi4kWeXioRVAayadUFc-381" value="int" style="shape=partialRectangle;html=1;whiteSpace=wrap;connectable=0;fillColor=none;top=0;left=0;bottom=0;right=0;align=left;spacingLeft=6;overflow=hidden;" vertex="1" parent="4bi4kWeXioRVAayadUFc-378">
          <mxGeometry x="153" width="110" height="20" as="geometry">
            <mxRectangle width="110" height="20" as="alternateBounds" />
          </mxGeometry>
        </mxCell>
        <mxCell id="4bi4kWeXioRVAayadUFc-382" value="2" style="shape=partialRectangle;html=1;whiteSpace=wrap;connectable=0;fillColor=none;top=0;left=0;bottom=0;right=0;align=left;spacingLeft=6;overflow=hidden;" vertex="1" parent="4bi4kWeXioRVAayadUFc-378">
          <mxGeometry x="263" width="54" height="20" as="geometry">
            <mxRectangle width="54" height="20" as="alternateBounds" />
          </mxGeometry>
        </mxCell>
        <mxCell id="4bi4kWeXioRVAayadUFc-383" style="shape=tableRow;horizontal=0;startSize=0;swimlaneHead=0;swimlaneBody=0;top=0;left=0;bottom=0;right=0;collapsible=0;dropTarget=0;fillColor=none;points=[[0,0.5],[1,0.5]];portConstraint=eastwest;" vertex="1" parent="4bi4kWeXioRVAayadUFc-377">
          <mxGeometry y="50" width="317" height="20" as="geometry" />
        </mxCell>
        <mxCell id="4bi4kWeXioRVAayadUFc-384" value="0x2" style="shape=partialRectangle;html=1;whiteSpace=wrap;connectable=0;fillColor=none;top=0;left=0;bottom=0;right=0;overflow=hidden;pointerEvents=1;align=center;" vertex="1" parent="4bi4kWeXioRVAayadUFc-383">
          <mxGeometry width="37" height="20" as="geometry">
            <mxRectangle width="37" height="20" as="alternateBounds" />
          </mxGeometry>
        </mxCell>
        <mxCell id="4bi4kWeXioRVAayadUFc-385" value="Parameters" style="shape=partialRectangle;html=1;whiteSpace=wrap;connectable=0;fillColor=none;top=0;left=0;bottom=0;right=0;align=left;spacingLeft=6;overflow=hidden;" vertex="1" parent="4bi4kWeXioRVAayadUFc-383">
          <mxGeometry x="37" width="116" height="20" as="geometry">
            <mxRectangle width="116" height="20" as="alternateBounds" />
          </mxGeometry>
        </mxCell>
        <mxCell id="4bi4kWeXioRVAayadUFc-386" value="ShaderParam[]" style="shape=partialRectangle;html=1;whiteSpace=wrap;connectable=0;fillColor=none;top=0;left=0;bottom=0;right=0;align=left;spacingLeft=6;overflow=hidden;" vertex="1" parent="4bi4kWeXioRVAayadUFc-383">
          <mxGeometry x="153" width="110" height="20" as="geometry">
            <mxRectangle width="110" height="20" as="alternateBounds" />
          </mxGeometry>
        </mxCell>
        <mxCell id="4bi4kWeXioRVAayadUFc-387" value="Count" style="shape=partialRectangle;html=1;whiteSpace=wrap;connectable=0;fillColor=none;top=0;left=0;bottom=0;right=0;align=left;spacingLeft=6;overflow=hidden;" vertex="1" parent="4bi4kWeXioRVAayadUFc-383">
          <mxGeometry x="263" width="54" height="20" as="geometry">
            <mxRectangle width="54" height="20" as="alternateBounds" />
          </mxGeometry>
        </mxCell>
        <mxCell id="4bi4kWeXioRVAayadUFc-388" style="edgeStyle=orthogonalEdgeStyle;rounded=0;orthogonalLoop=1;jettySize=auto;html=1;exitX=1;exitY=0.5;exitDx=0;exitDy=0;entryX=-0.003;entryY=0.209;entryDx=0;entryDy=0;entryPerimeter=0;fontSize=12;" edge="1" parent="WIyWlLk6GJQsqaUBKTNV-1" source="4bi4kWeXioRVAayadUFc-323" target="4bi4kWeXioRVAayadUFc-378">
          <mxGeometry relative="1" as="geometry">
            <Array as="points">
              <mxPoint x="560" y="3510" />
              <mxPoint x="560" y="3800" />
              <mxPoint x="37" y="3800" />
              <mxPoint x="37" y="3844" />
            </Array>
          </mxGeometry>
        </mxCell>
        <mxCell id="4bi4kWeXioRVAayadUFc-389" value="GfxMaterial.ShaderParam" style="shape=table;startSize=30;container=1;collapsible=0;childLayout=tableLayout;fixedRows=1;rowLines=0;fontStyle=0;strokeColor=default;" vertex="1" parent="WIyWlLk6GJQsqaUBKTNV-1">
          <mxGeometry x="57" y="3900" width="317" height="110" as="geometry" />
        </mxCell>
        <mxCell id="4bi4kWeXioRVAayadUFc-390" value="" style="shape=tableRow;horizontal=0;startSize=0;swimlaneHead=0;swimlaneBody=0;top=0;left=0;bottom=0;right=0;collapsible=0;dropTarget=0;fillColor=none;points=[[0,0.5],[1,0.5]];portConstraint=eastwest;" vertex="1" parent="4bi4kWeXioRVAayadUFc-389">
          <mxGeometry y="30" width="317" height="20" as="geometry" />
        </mxCell>
        <mxCell id="4bi4kWeXioRVAayadUFc-391" value="0x0" style="shape=partialRectangle;html=1;whiteSpace=wrap;connectable=0;fillColor=none;top=0;left=0;bottom=0;right=0;overflow=hidden;pointerEvents=1;align=center;" vertex="1" parent="4bi4kWeXioRVAayadUFc-390">
          <mxGeometry width="37" height="20" as="geometry">
            <mxRectangle width="37" height="20" as="alternateBounds" />
          </mxGeometry>
        </mxCell>
        <mxCell id="4bi4kWeXioRVAayadUFc-392" value="Name" style="shape=partialRectangle;html=1;whiteSpace=wrap;connectable=0;fillColor=none;top=0;left=0;bottom=0;right=0;align=left;spacingLeft=6;overflow=hidden;" vertex="1" parent="4bi4kWeXioRVAayadUFc-390">
          <mxGeometry x="37" width="83" height="20" as="geometry">
            <mxRectangle width="83" height="20" as="alternateBounds" />
          </mxGeometry>
        </mxCell>
        <mxCell id="4bi4kWeXioRVAayadUFc-393" value="String" style="shape=partialRectangle;html=1;whiteSpace=wrap;connectable=0;fillColor=none;top=0;left=0;bottom=0;right=0;align=left;spacingLeft=6;overflow=hidden;" vertex="1" parent="4bi4kWeXioRVAayadUFc-390">
          <mxGeometry x="120" width="100" height="20" as="geometry">
            <mxRectangle width="100" height="20" as="alternateBounds" />
          </mxGeometry>
        </mxCell>
        <mxCell id="4bi4kWeXioRVAayadUFc-394" value="-" style="shape=partialRectangle;html=1;whiteSpace=wrap;connectable=0;fillColor=none;top=0;left=0;bottom=0;right=0;align=left;spacingLeft=6;overflow=hidden;" vertex="1" parent="4bi4kWeXioRVAayadUFc-390">
          <mxGeometry x="220" width="97" height="20" as="geometry">
            <mxRectangle width="97" height="20" as="alternateBounds" />
          </mxGeometry>
        </mxCell>
        <mxCell id="4bi4kWeXioRVAayadUFc-395" style="shape=tableRow;horizontal=0;startSize=0;swimlaneHead=0;swimlaneBody=0;top=0;left=0;bottom=0;right=0;collapsible=0;dropTarget=0;fillColor=none;points=[[0,0.5],[1,0.5]];portConstraint=eastwest;" vertex="1" parent="4bi4kWeXioRVAayadUFc-389">
          <mxGeometry y="50" width="317" height="20" as="geometry" />
        </mxCell>
        <mxCell id="4bi4kWeXioRVAayadUFc-396" value="+0x0" style="shape=partialRectangle;html=1;whiteSpace=wrap;connectable=0;fillColor=none;top=0;left=0;bottom=0;right=0;overflow=hidden;pointerEvents=1;align=center;" vertex="1" parent="4bi4kWeXioRVAayadUFc-395">
          <mxGeometry width="37" height="20" as="geometry">
            <mxRectangle width="37" height="20" as="alternateBounds" />
          </mxGeometry>
        </mxCell>
        <mxCell id="4bi4kWeXioRVAayadUFc-397" value="Type" style="shape=partialRectangle;html=1;whiteSpace=wrap;connectable=0;fillColor=none;top=0;left=0;bottom=0;right=0;align=left;spacingLeft=6;overflow=hidden;" vertex="1" parent="4bi4kWeXioRVAayadUFc-395">
          <mxGeometry x="37" width="83" height="20" as="geometry">
            <mxRectangle width="83" height="20" as="alternateBounds" />
          </mxGeometry>
        </mxCell>
        <mxCell id="4bi4kWeXioRVAayadUFc-398" value="UUniformType" style="shape=partialRectangle;html=1;whiteSpace=wrap;connectable=0;fillColor=none;top=0;left=0;bottom=0;right=0;align=left;spacingLeft=6;overflow=hidden;" vertex="1" parent="4bi4kWeXioRVAayadUFc-395">
          <mxGeometry x="120" width="100" height="20" as="geometry">
            <mxRectangle width="100" height="20" as="alternateBounds" />
          </mxGeometry>
        </mxCell>
        <mxCell id="4bi4kWeXioRVAayadUFc-399" value="1" style="shape=partialRectangle;html=1;whiteSpace=wrap;connectable=0;fillColor=none;top=0;left=0;bottom=0;right=0;align=left;spacingLeft=6;overflow=hidden;" vertex="1" parent="4bi4kWeXioRVAayadUFc-395">
          <mxGeometry x="220" width="97" height="20" as="geometry">
            <mxRectangle width="97" height="20" as="alternateBounds" />
          </mxGeometry>
        </mxCell>
        <mxCell id="4bi4kWeXioRVAayadUFc-400" style="shape=tableRow;horizontal=0;startSize=0;swimlaneHead=0;swimlaneBody=0;top=0;left=0;bottom=0;right=0;collapsible=0;dropTarget=0;fillColor=none;points=[[0,0.5],[1,0.5]];portConstraint=eastwest;" vertex="1" parent="4bi4kWeXioRVAayadUFc-389">
          <mxGeometry y="70" width="317" height="20" as="geometry" />
        </mxCell>
        <mxCell id="4bi4kWeXioRVAayadUFc-401" value="+0x1" style="shape=partialRectangle;html=1;whiteSpace=wrap;connectable=0;fillColor=none;top=0;left=0;bottom=0;right=0;overflow=hidden;pointerEvents=1;align=center;" vertex="1" parent="4bi4kWeXioRVAayadUFc-400">
          <mxGeometry width="37" height="20" as="geometry">
            <mxRectangle width="37" height="20" as="alternateBounds" />
          </mxGeometry>
        </mxCell>
        <mxCell id="4bi4kWeXioRVAayadUFc-402" value="ValueCount" style="shape=partialRectangle;html=1;whiteSpace=wrap;connectable=0;fillColor=none;top=0;left=0;bottom=0;right=0;align=left;spacingLeft=6;overflow=hidden;" vertex="1" parent="4bi4kWeXioRVAayadUFc-400">
          <mxGeometry x="37" width="83" height="20" as="geometry">
            <mxRectangle width="83" height="20" as="alternateBounds" />
          </mxGeometry>
        </mxCell>
        <mxCell id="4bi4kWeXioRVAayadUFc-403" value="int" style="shape=partialRectangle;html=1;whiteSpace=wrap;connectable=0;fillColor=none;top=0;left=0;bottom=0;right=0;align=left;spacingLeft=6;overflow=hidden;" vertex="1" parent="4bi4kWeXioRVAayadUFc-400">
          <mxGeometry x="120" width="100" height="20" as="geometry">
            <mxRectangle width="100" height="20" as="alternateBounds" />
          </mxGeometry>
        </mxCell>
        <mxCell id="4bi4kWeXioRVAayadUFc-404" value="2" style="shape=partialRectangle;html=1;whiteSpace=wrap;connectable=0;fillColor=none;top=0;left=0;bottom=0;right=0;align=left;spacingLeft=6;overflow=hidden;" vertex="1" parent="4bi4kWeXioRVAayadUFc-400">
          <mxGeometry x="220" width="97" height="20" as="geometry">
            <mxRectangle width="97" height="20" as="alternateBounds" />
          </mxGeometry>
        </mxCell>
        <mxCell id="4bi4kWeXioRVAayadUFc-405" style="shape=tableRow;horizontal=0;startSize=0;swimlaneHead=0;swimlaneBody=0;top=0;left=0;bottom=0;right=0;collapsible=0;dropTarget=0;fillColor=none;points=[[0,0.5],[1,0.5]];portConstraint=eastwest;" vertex="1" parent="4bi4kWeXioRVAayadUFc-389">
          <mxGeometry y="90" width="317" height="20" as="geometry" />
        </mxCell>
        <mxCell id="4bi4kWeXioRVAayadUFc-406" value="+0x3" style="shape=partialRectangle;html=1;whiteSpace=wrap;connectable=0;fillColor=none;top=0;left=0;bottom=0;right=0;overflow=hidden;pointerEvents=1;align=center;" vertex="1" parent="4bi4kWeXioRVAayadUFc-405">
          <mxGeometry width="37" height="20" as="geometry">
            <mxRectangle width="37" height="20" as="alternateBounds" />
          </mxGeometry>
        </mxCell>
        <mxCell id="4bi4kWeXioRVAayadUFc-407" value="Values" style="shape=partialRectangle;html=1;whiteSpace=wrap;connectable=0;fillColor=none;top=0;left=0;bottom=0;right=0;align=left;spacingLeft=6;overflow=hidden;" vertex="1" parent="4bi4kWeXioRVAayadUFc-405">
          <mxGeometry x="37" width="83" height="20" as="geometry">
            <mxRectangle width="83" height="20" as="alternateBounds" />
          </mxGeometry>
        </mxCell>
        <mxCell id="4bi4kWeXioRVAayadUFc-408" value="(Type)[]" style="shape=partialRectangle;html=1;whiteSpace=wrap;connectable=0;fillColor=none;top=0;left=0;bottom=0;right=0;align=left;spacingLeft=6;overflow=hidden;" vertex="1" parent="4bi4kWeXioRVAayadUFc-405">
          <mxGeometry x="120" width="100" height="20" as="geometry">
            <mxRectangle width="100" height="20" as="alternateBounds" />
          </mxGeometry>
        </mxCell>
        <mxCell id="4bi4kWeXioRVAayadUFc-409" value="ValueCount*" style="shape=partialRectangle;html=1;whiteSpace=wrap;connectable=0;fillColor=none;top=0;left=0;bottom=0;right=0;align=left;spacingLeft=6;overflow=hidden;" vertex="1" parent="4bi4kWeXioRVAayadUFc-405">
          <mxGeometry x="220" width="97" height="20" as="geometry">
            <mxRectangle width="97" height="20" as="alternateBounds" />
          </mxGeometry>
        </mxCell>
        <mxCell id="4bi4kWeXioRVAayadUFc-410" style="edgeStyle=orthogonalEdgeStyle;rounded=0;orthogonalLoop=1;jettySize=auto;html=1;exitX=1;exitY=0.5;exitDx=0;exitDy=0;entryX=0;entryY=0.5;entryDx=0;entryDy=0;fontSize=12;" edge="1" parent="WIyWlLk6GJQsqaUBKTNV-1" source="4bi4kWeXioRVAayadUFc-383" target="4bi4kWeXioRVAayadUFc-395">
          <mxGeometry relative="1" as="geometry">
            <Array as="points">
              <mxPoint x="394" y="3870" />
              <mxPoint x="394" y="3890" />
              <mxPoint x="37" y="3890" />
              <mxPoint x="37" y="3960" />
            </Array>
          </mxGeometry>
        </mxCell>
      </root>
    </mxGraphModel>
  </diagram>
</mxfile>
